{"glyphs":{":":{"x_min":0,"x_max":213,"ha":213,"o":"m 162 444 b 160 458 156 465 143 471 b 130 477 116 478 103 471 b 81 460 82 442 81 419 b 79 397 78 375 77 353 b 75 320 161 319 162 353 b 162 383 164 414 162 444 z m 96 0 b 71 -10 63 -25 58 -51 b 54 -75 52 -99 50 -123 b 47 -161 149 -163 151 -123 b 152 -94 157 -64 153 -35 b 149 -9 123 11 96 0 z"},"$":{"x_min":0,"x_max":628,"ha":628,"o":"m 484 246 b 443 297 393 337 341 375 b 343 498 347 620 351 742 b 370 728 386 709 398 687 b 407 670 458 676 448 695 b 426 735 392 765 353 783 b 355 838 357 892 359 947 b 360 967 308 967 308 947 b 305 898 303 849 301 800 b 255 808 205 802 160 779 b 108 752 67 701 54 643 b 41 580 61 519 98 468 b 138 412 197 373 252 333 b 264 324 276 315 287 307 b 286 161 287 16 294 -129 b 170 -104 90 71 158 181 b 169 199 119 205 108 189 b 47 92 94 -53 182 -117 b 215 -141 255 -157 296 -163 b 298 -204 301 -244 304 -284 b 305 -306 359 -305 358 -284 b 355 -245 352 -206 350 -167 b 410 -165 470 -145 515 -105 b 631 -3 566 146 484 246 z m 289 414 b 244 448 200 486 170 534 b 129 601 115 694 185 747 b 222 774 263 779 300 768 b 295 650 291 532 289 414 z m 479 -9 b 468 -73 412 -119 349 -130 b 349 -130 348 -130 348 -130 b 342 1 340 132 340 263 b 365 240 388 216 409 190 b 453 135 491 65 479 -9 z"},"?":{"x_min":0,"x_max":526,"ha":526,"o":"m 476 653 b 472 750 409 839 307 840 b 210 842 111 784 69 696 b 24 602 61 486 164 454 b 185 448 224 470 191 480 b 68 518 90 677 165 749 b 207 789 287 829 345 800 b 399 773 398 704 390 653 b 370 532 318 414 278 298 b 258 241 241 183 228 124 b 214 61 200 -7 209 -71 b 216 -118 324 -119 329 -71 b 335 -10 338 51 350 111 b 363 175 382 237 400 299 b 433 411 480 534 476 653 z m 332 -216 b 333 -180 239 -179 239 -216 b 240 -259 242 -306 273 -338 b 283 -349 314 -350 322 -335 b 339 -299 331 -254 332 -216 z"},"<":{"x_min":0,"x_max":463,"ha":463,"o":"m 387 171 b 348 184 307 191 267 198 b 247 201 226 205 207 209 b 196 211 155 222 156 224 b 156 231 190 252 198 257 b 215 268 232 279 250 289 b 287 310 325 334 365 351 b 399 366 358 385 337 378 b 279 360 223 343 168 317 b 132 300 57 270 50 223 b 44 175 128 161 160 154 b 217 140 276 134 333 119 b 356 113 389 111 406 130 b 422 148 406 165 387 171 z"},"'":{"x_min":0,"x_max":235,"ha":235,"o":"m 83 798 b 75 774 66 749 60 724 b 54 702 45 679 54 657 b 60 642 91 642 103 650 b 144 680 162 738 183 783 b 201 822 96 836 83 798 z"},"=":{"x_min":0,"x_max":628,"ha":628,"o":"m 292 406 b 364 410 436 414 508 417 b 525 418 558 423 558 445 b 558 467 524 474 508 474 b 434 471 360 466 286 460 b 213 453 141 439 68 430 b 38 426 49 398 76 399 b 147 404 220 402 292 406 z m 576 282 b 568 305 531 305 513 303 b 438 297 363 289 289 279 b 220 271 142 267 77 240 b 56 232 63 212 84 210 b 158 204 235 217 308 225 b 386 232 463 240 540 246 b 557 248 584 261 576 282 z"},"a":{"x_min":0,"x_max":554,"ha":554,"o":"m 542 168 b 524 120 506 67 471 29 b 415 -31 403 86 399 119 b 386 227 396 337 393 446 b 391 496 270 496 266 446 b 265 441 265 435 265 430 b 257 437 249 443 239 448 b 195 471 140 464 96 443 b -22 383 -45 240 -20 121 b -8 68 16 15 68 -8 b 117 -29 173 -15 210 23 b 249 62 259 120 269 172 b 269 172 269 173 270 174 b 276 114 290 51 339 12 b 378 -20 443 -36 489 -10 b 546 23 570 102 591 160 b 598 181 549 185 542 168 z m 202 114 b 197 96 190 77 180 60 b 174 50 151 18 137 22 b 124 26 112 53 107 65 b 99 84 95 106 91 127 b 79 206 87 294 123 366 b 140 400 171 446 213 417 b 231 403 243 384 252 363 b 240 280 226 195 202 114 z"},"L":{"x_min":0,"x_max":941,"ha":941,"o":"m 732 527 b 960 659 1147 900 1199 1161 b 1222 1272 1203 1406 1079 1444 b 954 1482 820 1413 736 1323 b 638 1220 577 1079 538 944 b 520 880 506 816 496 750 b 482 756 464 757 449 756 b 402 753 355 742 310 727 b 282 717 255 706 228 693 b 213 699 186 696 184 681 b 184 679 184 678 183 676 b 180 674 178 670 178 667 b 136 644 96 618 58 591 b 31 573 80 557 97 569 b 123 587 150 605 177 622 b 174 572 179 521 211 480 b 249 430 313 422 372 423 b 406 423 439 426 472 431 b 471 276 482 120 504 -34 b 517 -123 534 -212 557 -298 b 566 -331 575 -378 606 -397 b 607 -398 609 -399 610 -400 b 525 -451 397 -512 330 -407 b 319 -391 265 -396 277 -416 b 321 -488 412 -507 491 -492 b 589 -472 678 -407 759 -351 b 846 -290 930 -224 1020 -168 b 1066 -140 1117 -107 1171 -97 b 1224 -88 1282 -120 1285 -178 b 1286 -197 1335 -197 1334 -178 b 1331 -90 1231 -57 1157 -69 b 1060 -85 969 -152 889 -207 b 814 -258 741 -314 665 -365 b 668 -348 660 -292 659 -284 b 653 -249 648 -214 642 -179 b 632 -113 624 -47 617 19 b 602 153 595 287 596 422 b 596 436 597 450 597 464 b 644 481 689 502 732 527 z m 738 1153 b 784 1248 851 1353 952 1397 b 1005 1420 1066 1420 1107 1376 b 1144 1337 1152 1282 1150 1231 b 1146 1116 1097 1000 1040 902 b 981 802 905 711 817 636 b 751 582 677 534 598 502 b 606 725 642 951 738 1153 z m 451 726 b 406 711 361 699 315 692 b 330 697 345 702 360 707 b 370 710 422 726 451 726 z m 279 475 b 225 516 227 590 235 653 b 322 657 407 674 489 704 b 481 637 476 570 474 502 b 473 489 473 477 473 464 b 415 453 328 437 279 475 z"},"3":{"x_min":0,"x_max":733,"ha":733,"o":"m 261 -172 b 152 -106 158 34 151 144 b 148 182 59 182 54 144 b 39 20 64 -129 173 -205 b 279 -280 430 -264 532 -190 b 727 -49 734 249 545 398 b 500 433 440 464 378 480 b 413 503 445 529 473 560 b 502 590 526 623 527 666 b 529 706 504 740 470 758 b 396 798 296 779 223 747 b 147 715 70 663 51 579 b 47 561 96 559 101 579 b 116 646 179 689 238 717 b 271 732 307 744 344 747 b 374 750 427 751 449 723 b 494 667 391 591 354 562 b 315 532 273 506 228 487 b 203 481 179 472 156 458 b 138 447 134 428 152 414 b 172 398 205 397 228 405 b 243 411 258 417 273 423 b 339 437 415 399 464 358 b 530 302 572 223 577 136 b 583 49 556 -43 496 -109 b 438 -174 343 -222 261 -172 z"},";":{"x_min":0,"x_max":261,"ha":261,"o":"m 194 494 b 187 512 144 510 141 490 b 136 454 133 416 127 380 b 123 350 208 345 210 380 b 214 420 209 457 194 494 z m 138 4 b 120 -94 90 -186 52 -279 b 36 -318 129 -324 145 -293 b 170 -244 186 -193 199 -140 b 210 -89 217 -38 191 9 b 182 24 142 25 138 4 z"},"J":{"x_min":0,"x_max":1148,"ha":1148,"o":"m 1276 894 b 1311 982 1338 1070 1383 1154 b 1395 1177 1408 1200 1422 1222 b 1517 1239 1610 1266 1693 1311 b 1740 1337 1860 1424 1785 1483 b 1717 1536 1613 1494 1554 1449 b 1483 1395 1423 1322 1370 1249 b 1228 1226 1083 1222 938 1216 b 934 1238 929 1260 920 1280 b 910 1300 854 1297 855 1275 b 851 1255 849 1234 850 1212 b 836 1211 822 1211 807 1210 b 626 1199 440 1178 274 1098 b 196 1060 113 1005 68 928 b 21 846 71 760 165 760 b 195 760 195 787 165 788 b 99 789 89 864 113 910 b 133 951 170 985 205 1013 b 279 1071 368 1106 458 1131 b 586 1165 718 1177 851 1183 b 852 1149 857 1116 858 1085 b 862 1022 865 959 868 895 b 875 771 882 646 886 522 b 894 304 931 50 809 -145 b 708 -307 458 -400 308 -246 b 147 -82 240 201 361 359 b 398 406 441 452 494 483 b 525 502 576 525 603 488 b 617 469 618 443 618 421 b 615 315 569 209 507 121 b 492 113 478 104 464 93 b 441 76 433 50 467 41 b 476 39 494 37 501 46 b 503 49 504 52 504 55 b 511 55 518 57 521 62 b 533 75 543 89 553 104 b 556 105 558 106 559 107 b 581 118 604 128 628 136 b 670 150 735 173 775 146 b 792 134 842 150 815 168 b 751 211 657 184 589 158 b 632 231 661 312 670 397 b 675 441 671 491 633 519 b 590 550 531 541 487 521 b 377 472 293 363 240 259 b 186 152 153 22 175 -97 b 195 -209 266 -302 373 -344 b 480 -386 606 -378 711 -336 b 821 -291 909 -207 962 -101 b 1022 19 1027 155 1023 286 b 1018 453 1007 620 992 787 b 984 868 975 950 964 1031 b 959 1072 954 1112 948 1153 b 946 1164 944 1175 943 1186 b 992 1188 1042 1189 1091 1192 b 1173 1196 1259 1200 1344 1211 b 1342 1208 1341 1206 1339 1204 b 1280 1115 1221 1012 1195 907 b 1187 871 1264 866 1276 894 z m 1552 1389 b 1584 1421 1621 1453 1665 1468 b 1690 1476 1736 1483 1750 1453 b 1761 1428 1738 1398 1722 1382 b 1653 1313 1543 1284 1449 1264 b 1480 1308 1514 1350 1552 1389 z"},"V":{"x_min":0,"x_max":1376,"ha":1376,"o":"m 1145 482 b 1087 308 1024 136 954 -34 b 921 -113 886 -191 845 -266 b 825 -302 803 -338 780 -373 b 759 -403 730 -443 694 -457 b 635 -479 593 -359 577 -321 b 544 -245 517 -166 496 -87 b 452 72 426 234 403 397 b 377 579 356 763 312 942 b 292 1024 273 1112 219 1180 b 182 1225 108 1276 54 1225 b 36 1208 85 1199 98 1210 b 132 1240 172 1144 179 1124 b 193 1081 201 1037 208 993 b 224 903 236 811 246 720 b 268 541 284 361 314 183 b 344 8 386 -167 465 -327 b 499 -395 540 -475 617 -502 b 695 -530 773 -495 824 -434 b 940 -295 1008 -112 1074 55 b 1147 242 1214 431 1273 623 b 1331 810 1390 1008 1389 1206 b 1389 1268 1375 1338 1330 1383 b 1274 1439 1187 1430 1119 1403 b 1033 1370 960 1311 897 1245 b 831 1176 771 1099 730 1013 b 696 943 656 843 683 766 b 701 716 744 698 791 694 b 730 668 671 639 613 609 b 562 581 510 553 463 519 b 437 501 415 466 455 449 b 495 431 552 446 590 460 b 641 479 687 509 731 540 b 796 585 861 632 909 695 b 931 702 952 708 974 714 b 988 718 998 731 987 743 b 979 754 960 755 946 753 b 946 753 946 754 946 754 b 955 773 907 778 899 762 b 893 751 887 740 880 730 b 878 730 875 730 872 730 b 838 724 794 714 763 735 b 726 760 727 811 732 850 b 743 928 777 1002 818 1069 b 860 1136 912 1198 969 1254 b 1028 1311 1099 1366 1180 1386 b 1372 1434 1306 1108 1290 1014 b 1260 833 1203 656 1145 482 z m 730 587 b 695 562 660 537 623 515 b 606 506 502 452 494 481 b 489 499 524 512 538 521 b 557 533 577 545 597 556 b 635 578 674 599 713 618 b 751 636 789 652 828 667 b 798 637 765 611 730 587 z"},"\"":{"x_min":0,"x_max":362,"ha":362,"o":"m 93 835 b 76 780 48 715 50 657 b 51 629 103 637 114 652 b 150 700 167 764 187 820 b 201 860 104 869 93 835 z m 224 789 b 210 745 198 696 200 649 b 202 626 245 632 254 645 b 282 684 300 730 311 776 b 321 814 234 821 224 789 z"},"7":{"x_min":0,"x_max":609,"ha":609,"o":"m 80 674 b 130 681 179 691 227 703 b 280 716 334 736 389 735 b 418 734 449 726 465 700 b 476 681 474 659 472 638 b 467 585 460 532 447 480 b 428 407 403 334 380 262 b 363 262 347 261 331 256 b 320 253 314 244 321 235 b 328 225 348 227 358 229 b 362 230 366 231 370 231 b 333 116 300 -1 295 -122 b 293 -164 399 -168 409 -131 b 439 -13 457 109 487 228 b 505 228 523 229 541 231 b 571 233 560 263 534 261 b 521 260 508 259 495 259 b 522 360 551 462 549 568 b 548 615 542 671 515 712 b 492 748 449 761 409 764 b 355 769 302 755 251 741 b 190 725 129 711 67 702 b 34 696 55 670 80 674 z"},"S":{"x_min":0,"x_max":1234,"ha":1234,"o":"m 282 1126 b 211 1085 136 1017 113 936 b 57 745 220 592 378 520 b 468 479 563 452 655 415 b 743 380 828 335 906 280 b 983 227 1078 152 1106 59 b 1139 -54 999 -108 916 -133 b 811 -164 698 -174 589 -172 b 554 -172 518 -170 483 -167 b 494 -136 505 -105 518 -74 b 555 17 609 107 620 206 b 624 243 625 286 592 309 b 560 332 518 331 482 328 b 397 321 314 296 240 254 b 169 213 89 151 60 71 b -8 -116 288 -173 417 -191 b 396 -258 381 -326 376 -396 b 370 -481 384 -575 461 -624 b 493 -645 529 -651 566 -648 b 575 -647 587 -640 583 -630 b 580 -619 561 -620 553 -620 b 502 -624 463 -576 447 -533 b 429 -484 430 -429 435 -377 b 441 -316 455 -256 473 -197 b 654 -215 853 -206 1018 -133 b 1088 -102 1168 -51 1182 31 b 1198 123 1121 207 1060 265 b 923 398 746 467 570 531 b 484 563 397 597 328 658 b 261 716 206 801 208 892 b 215 1122 510 1211 693 1132 b 790 1091 844 993 784 896 b 753 847 704 815 651 797 b 624 787 596 782 568 777 b 555 774 510 758 500 769 b 498 770 496 771 494 772 b 526 802 556 833 583 867 b 604 893 624 919 643 946 b 656 966 679 995 647 1008 b 593 1031 541 969 513 932 b 472 877 442 815 412 753 b 403 745 394 737 385 729 b 368 714 411 705 426 714 b 439 713 454 716 458 725 b 459 729 461 732 463 736 b 514 702 610 744 659 761 b 738 789 817 834 851 915 b 929 1102 691 1192 548 1195 b 456 1197 361 1174 282 1126 z m 263 -123 b 172 -92 65 -30 121 82 b 163 166 257 229 342 263 b 386 281 433 292 480 297 b 502 299 532 304 550 288 b 572 270 567 232 564 206 b 551 99 486 -1 448 -100 b 441 -120 433 -140 426 -161 b 371 -153 316 -141 263 -123 z m 600 965 b 590 946 571 927 562 915 b 556 906 548 897 541 888 b 557 914 577 946 600 965 z"},"}":{"x_min":0,"x_max":583,"ha":583,"o":"m 529 262 b 446 403 452 572 397 723 b 374 785 335 852 282 892 b 239 925 170 949 122 912 b 104 898 149 886 161 895 b 188 914 230 882 249 864 b 270 844 284 822 295 795 b 319 737 326 672 331 610 b 340 505 346 393 385 294 b 355 287 329 269 314 237 b 283 167 305 81 305 7 b 305 -65 297 -145 267 -212 b 255 -239 238 -264 212 -279 b 177 -299 137 -291 99 -282 b 87 -278 63 -276 54 -289 b 45 -301 53 -310 66 -315 b 131 -338 207 -352 273 -324 b 334 -299 372 -241 393 -181 b 418 -108 426 -30 422 46 b 420 88 415 130 418 172 b 420 191 426 205 432 223 b 432 223 432 223 432 224 b 434 223 436 223 437 222 b 458 214 553 220 529 262 z"},"Z":{"x_min":0,"x_max":1741,"ha":1741,"o":"m 1640 236 b 1694 383 1634 528 1512 619 b 1358 732 1150 735 968 717 b 903 710 839 699 776 684 b 839 725 900 769 960 813 b 1033 868 1104 926 1169 989 b 1198 1017 1226 1046 1251 1077 b 1276 1109 1305 1144 1315 1184 b 1361 1369 1111 1388 986 1379 b 812 1365 637 1309 479 1237 b 395 1199 310 1155 237 1099 b 203 1072 81 964 182 943 b 207 938 229 965 195 972 b 175 976 243 1050 248 1055 b 274 1079 304 1100 334 1118 b 398 1159 467 1194 537 1224 b 675 1285 824 1331 975 1346 b 1052 1354 1144 1353 1213 1315 b 1246 1297 1269 1267 1262 1228 b 1256 1192 1230 1156 1208 1128 b 1114 1010 985 919 864 832 b 721 730 572 638 422 546 b 402 534 403 515 422 503 b 443 489 477 491 498 503 b 624 571 759 619 900 643 b 1034 666 1184 677 1315 635 b 1429 598 1536 504 1549 380 b 1564 245 1471 126 1381 36 b 1192 -154 934 -273 676 -336 b 604 -354 530 -366 456 -373 b 386 -379 311 -382 242 -365 b 179 -348 97 -308 128 -230 b 152 -166 211 -117 264 -77 b 391 21 538 91 692 134 b 772 156 866 178 949 157 b 1044 133 937 44 884 10 b 871 6 858 1 845 -4 b 840 -6 835 -8 830 -11 b 783 -15 737 -23 695 -33 b 580 -59 453 -107 364 -186 b 345 -203 382 -215 394 -215 b 485 -214 571 -165 652 -129 b 698 -109 744 -88 789 -68 b 805 -61 822 -53 840 -44 b 901 -37 963 -40 1016 -62 b 1032 -69 1074 -51 1048 -39 b 1023 -27 996 -20 969 -15 b 986 -9 998 6 972 15 b 971 15 970 15 969 16 b 977 22 984 29 991 36 b 1014 58 1047 92 1045 125 b 1040 189 938 194 894 196 b 731 202 559 138 416 67 b 343 30 273 -14 207 -63 b 148 -107 76 -166 55 -241 b 34 -313 86 -369 147 -397 b 225 -434 315 -440 400 -438 b 577 -434 751 -395 917 -335 b 1066 -281 1209 -211 1337 -117 b 1458 -27 1587 91 1640 236 z m 611 -105 b 607 -107 603 -108 599 -110 b 603 -108 607 -107 611 -105 z"},"x":{"x_min":0,"x_max":349,"ha":349,"o":"m 336 184 b 319 140 301 93 269 57 b 264 52 252 37 244 35 b 225 32 222 47 216 59 b 205 80 197 103 191 125 b 181 159 173 194 167 230 b 206 300 245 370 280 442 b 289 462 238 467 230 450 b 206 402 180 355 154 308 b 148 355 145 404 134 451 b 124 492 34 494 26 451 b 12 376 28 296 46 223 b 52 200 59 176 68 152 b 44 109 20 65 -2 20 b -12 0 42 -6 51 12 b 65 40 79 68 94 96 b 108 72 125 51 146 33 b 187 1 247 -12 290 21 b 340 58 364 120 386 176 b 394 197 342 202 336 184 z"},")":{"x_min":0,"x_max":590,"ha":590,"o":"m 425 795 b 401 857 369 922 314 962 b 268 997 201 1014 144 1008 b 109 1004 133 977 158 979 b 213 983 252 937 277 894 b 300 853 315 807 329 762 b 360 658 385 552 399 444 b 413 337 419 230 411 123 b 403 26 390 -77 350 -167 b 332 -207 308 -247 270 -271 b 223 -300 165 -290 115 -277 b 97 -272 74 -271 59 -283 b 47 -293 46 -309 62 -316 b 171 -364 306 -369 400 -286 b 485 -213 510 -90 526 16 b 566 276 521 552 425 795 z"},"&":{"x_min":0,"x_max":810,"ha":810,"o":"m 604 82 b 680 175 737 280 760 398 b 764 417 711 419 707 398 b 683 283 624 179 549 90 b 514 49 473 4 427 -34 b 363 18 313 90 278 169 b 357 250 439 329 508 418 b 574 503 654 617 652 729 b 650 848 531 894 428 872 b 199 824 146 521 176 327 b 182 289 191 251 204 214 b 164 171 124 128 90 80 b 61 39 40 -14 55 -64 b 86 -169 237 -166 320 -140 b 358 -128 395 -109 429 -86 b 497 -130 577 -156 666 -154 b 700 -154 700 -122 666 -122 b 590 -122 522 -99 463 -61 b 516 -19 563 33 604 82 z m 277 685 b 301 738 337 785 388 815 b 412 829 440 840 468 841 b 502 841 518 827 529 797 b 550 743 534 685 514 634 b 494 582 468 532 437 486 b 382 403 313 331 246 259 b 238 290 232 320 228 351 b 215 463 229 582 277 685 z m 250 -120 b 180 -129 119 -87 139 -11 b 154 43 201 88 240 129 b 278 55 329 -11 393 -61 b 349 -91 301 -114 250 -120 z"},"_":{"x_min":0,"x_max":498,"ha":498,"o":"m 446 -90 b 437 -68 398 -66 379 -69 b 320 -76 261 -85 203 -94 b 156 -102 93 -104 54 -132 b 43 -141 57 -153 65 -156 b 117 -170 178 -157 230 -151 b 289 -144 349 -137 408 -129 b 426 -126 455 -113 446 -90 z"},"v":{"x_min":0,"x_max":438,"ha":438,"o":"m 445 191 b 419 185 391 194 366 210 b 382 251 396 293 406 336 b 418 387 434 465 404 513 b 379 553 325 552 290 527 b 246 495 223 439 221 387 b 218 319 254 247 309 203 b 295 168 279 134 260 103 b 251 88 218 31 194 33 b 174 34 157 72 149 87 b 95 194 95 311 70 425 b 60 470 -50 475 -51 425 b -52 356 -38 284 -20 217 b -4 155 23 92 69 46 b 112 5 175 -15 231 10 b 281 33 312 90 334 137 b 341 149 346 162 352 176 b 385 160 421 154 459 162 b 492 170 471 196 445 191 z m 327 250 b 327 248 326 246 325 244 b 316 255 307 266 301 276 b 272 325 265 388 284 441 b 291 461 305 496 325 505 b 372 526 368 451 367 429 b 366 367 348 308 327 250 z"},"O":{"x_min":0,"x_max":1029,"ha":1029,"o":"m 51 654 b 42 505 100 355 222 268 b 223 187 229 105 244 25 b 256 -39 274 -105 316 -156 b 364 -215 437 -244 513 -242 b 664 -239 779 -125 847 0 b 924 140 968 299 977 458 b 986 616 961 776 901 922 b 851 1045 766 1170 631 1208 b 309 1301 67 933 51 654 z m 842 933 b 896 808 922 671 923 534 b 924 395 899 256 846 126 b 799 11 723 -115 606 -171 b 537 -204 459 -199 413 -133 b 376 -79 363 -13 356 51 b 351 102 348 154 346 206 b 483 159 642 162 771 222 b 783 227 779 237 771 243 b 762 250 745 247 735 243 b 616 188 467 192 346 242 b 345 354 351 465 357 576 b 357 577 357 577 357 577 b 412 571 467 565 522 570 b 555 574 694 598 668 656 b 657 681 617 689 593 693 b 555 700 516 695 479 687 b 412 671 348 645 288 613 b 279 613 270 614 262 614 b 242 614 235 603 240 594 b 235 589 232 583 232 576 b 227 492 222 407 222 322 b 150 392 110 491 104 593 b 96 735 148 880 227 997 b 304 1111 433 1210 578 1188 b 709 1168 793 1046 842 933 z m 358 607 b 385 620 413 631 442 641 b 471 651 499 659 529 663 b 550 666 637 668 600 626 b 585 609 541 603 520 601 b 492 597 464 597 436 599 b 410 601 384 604 358 607 z"},"(":{"x_min":0,"x_max":590,"ha":590,"o":"m 531 -283 b 516 -271 492 -272 475 -277 b 432 -288 379 -299 337 -280 b 300 -264 275 -232 256 -198 b 208 -115 193 -15 183 79 b 159 293 189 513 249 720 b 264 772 279 825 303 874 b 327 924 370 984 432 979 b 457 977 481 1004 446 1008 b 393 1014 339 998 292 973 b 243 947 208 892 185 843 b 130 726 97 596 74 469 b 50 339 44 204 57 72 b 68 -38 88 -165 159 -254 b 249 -366 405 -370 528 -316 b 543 -309 543 -293 531 -283 z"},"C":{"x_min":0,"x_max":991,"ha":991,"o":"m 599 1193 b 480 1216 361 1120 289 1035 b 208 940 155 823 119 705 b 44 464 21 191 96 -53 b 130 -165 194 -280 303 -331 b 408 -380 517 -359 603 -284 b 705 -194 772 -64 825 59 b 883 194 921 336 941 481 b 944 500 893 501 890 481 b 859 261 784 38 659 -148 b 607 -225 505 -357 395 -322 b 298 -291 249 -185 221 -96 b 153 119 162 349 209 567 b 232 674 267 777 315 875 b 358 963 414 1053 492 1115 b 515 1133 548 1157 580 1153 b 610 1150 634 1123 648 1098 b 679 1042 676 971 671 908 b 663 802 636 699 624 593 b 573 625 505 631 445 619 b 363 603 233 553 211 459 b 202 417 235 388 274 380 b 326 369 384 391 433 409 b 509 437 581 475 655 510 b 669 508 685 513 684 523 b 708 533 732 543 756 552 b 789 564 750 586 729 578 b 712 572 694 565 677 558 b 687 682 724 803 731 927 b 738 1030 722 1170 599 1193 z m 405 436 b 373 424 291 386 269 426 b 250 461 291 503 316 524 b 346 549 383 565 420 578 b 490 601 573 601 620 541 b 620 538 620 535 619 532 b 585 516 550 499 515 483 b 479 466 443 449 405 436 z"},"W":{"x_min":0,"x_max":1812,"ha":1812,"o":"m 1398 -226 b 1375 -264 1333 -345 1282 -349 b 1243 -352 1208 -285 1192 -257 b 1153 -189 1119 -119 1090 -47 b 1188 159 1251 395 1259 621 b 1264 744 1253 874 1211 991 b 1196 1031 1172 1070 1128 1082 b 1083 1096 1037 1075 1007 1040 b 932 956 910 829 894 721 b 875 596 871 470 884 344 b 896 221 923 97 965 -19 b 975 -48 987 -79 999 -109 b 957 -183 903 -252 832 -298 b 781 -330 731 -339 684 -297 b 646 -263 620 -215 599 -171 b 493 48 452 290 405 526 b 382 641 356 757 319 868 b 291 951 249 1091 144 1099 b 107 1101 67 1089 51 1053 b 42 1033 93 1028 102 1045 b 118 1078 152 1069 172 1044 b 190 1020 197 987 204 959 b 220 897 235 836 249 774 b 277 650 297 525 321 401 b 343 280 367 159 404 41 b 437 -69 479 -194 556 -282 b 630 -367 741 -404 845 -347 b 919 -307 978 -240 1024 -168 b 1052 -229 1085 -288 1127 -337 b 1164 -381 1214 -408 1272 -408 b 1328 -408 1369 -379 1402 -337 b 1473 -243 1519 -125 1554 -14 b 1592 107 1618 231 1650 353 b 1684 486 1722 618 1766 747 b 1809 871 1856 994 1914 1111 b 1967 1219 2038 1342 2146 1403 b 2197 1432 2258 1436 2301 1394 b 2243 1365 2188 1330 2136 1291 b 2088 1254 2040 1213 2004 1163 b 1978 1127 1943 1068 1981 1029 b 1992 1017 2015 1020 2027 1029 b 2158 1130 2238 1280 2365 1385 b 2366 1385 2366 1386 2367 1386 b 2398 1401 2430 1412 2460 1408 b 2487 1405 2512 1435 2475 1439 b 2429 1444 2386 1432 2345 1414 b 2280 1475 2175 1466 2102 1423 b 2007 1367 1939 1266 1887 1172 b 1765 950 1686 700 1619 457 b 1556 228 1521 -20 1398 -226 z m 962 779 b 968 839 985 899 1010 953 b 1031 997 1086 1098 1136 1029 b 1169 984 1179 919 1188 866 b 1200 806 1205 744 1206 683 b 1209 459 1152 229 1063 22 b 1057 39 1051 55 1045 72 b 971 295 936 544 962 779 z m 2017 1074 b 2019 1108 2052 1150 2067 1169 b 2098 1206 2136 1238 2174 1268 b 2189 1280 2205 1291 2221 1302 b 2153 1226 2093 1142 2017 1074 z"},"A":{"x_min":0,"x_max":1531,"ha":1531,"o":"m 336 31 b 423 24 511 30 598 41 b 583 -95 576 -233 577 -371 b 577 -392 630 -392 630 -371 b 629 -231 636 -91 651 49 b 686 55 721 62 756 69 b 897 97 1036 136 1175 176 b 1186 179 1192 187 1185 197 b 1178 207 1158 205 1148 202 b 985 157 822 111 655 84 b 672 233 699 381 735 527 b 740 526 746 526 751 526 b 848 523 944 504 1034 468 b 1115 435 1235 373 1248 275 b 1264 156 1146 81 1057 31 b 964 -21 866 -63 764 -95 b 753 -98 742 -102 731 -105 b 697 -116 738 -138 759 -132 b 772 -128 785 -124 798 -120 b 909 -88 1030 -70 1140 -112 b 1233 -149 1313 -229 1331 -329 b 1331 -336 1331 -343 1332 -350 b 1334 -401 1462 -401 1461 -350 b 1456 -97 1443 156 1421 409 b 1400 649 1374 900 1282 1125 b 1248 1206 1190 1312 1087 1300 b 987 1288 930 1178 887 1099 b 798 937 739 754 694 573 b 510 570 318 520 175 411 b 102 355 12 247 67 151 b 119 62 242 39 336 31 z m 1009 1201 b 1044 1249 1104 1301 1153 1238 b 1184 1198 1197 1148 1210 1101 b 1269 884 1286 659 1300 436 b 1313 224 1318 12 1326 -200 b 1286 -149 1229 -110 1167 -86 b 1102 -60 1033 -53 964 -57 b 1005 -39 1046 -19 1086 3 b 1177 53 1282 116 1303 226 b 1322 332 1230 407 1151 459 b 1060 518 952 551 844 565 b 812 569 780 571 747 572 b 779 695 819 815 865 932 b 903 1026 948 1119 1009 1201 z m 194 344 b 262 414 355 456 447 485 b 523 509 603 522 682 526 b 676 498 670 471 664 444 b 636 322 616 200 602 76 b 569 72 537 68 504 65 b 401 57 277 52 184 108 b 148 129 120 162 120 206 b 120 259 159 308 194 344 z"},"f":{"x_min":0,"x_max":357,"ha":357,"o":"m 353 196 b 275 153 195 114 113 79 b 112 209 120 340 110 471 b 106 520 -13 520 -15 471 b -19 369 -19 268 -16 166 b -15 86 -12 4 8 -75 b 30 -160 91 -238 185 -238 b 275 -238 339 -152 320 -66 b 302 15 235 54 161 62 b 239 97 315 134 390 175 b 416 190 369 205 353 196 z m 239 -12 b 273 -52 279 -111 254 -157 b 243 -178 218 -210 190 -205 b 166 -200 147 -165 139 -146 b 126 -116 119 -85 117 -53 b 115 -24 114 5 113 34 b 161 37 207 27 239 -12 z"},"Q":{"x_min":0,"x_max":1029,"ha":1029,"o":"m 51 654 b 42 505 100 355 222 268 b 223 187 229 105 244 25 b 256 -39 274 -105 316 -156 b 352 -201 404 -229 459 -238 b 430 -249 401 -260 373 -271 b 310 -296 234 -319 185 -368 b 177 -377 186 -385 194 -388 b 211 -395 225 -396 242 -393 b 267 -390 260 -375 246 -369 b 289 -337 344 -319 393 -300 b 447 -279 501 -259 556 -242 b 641 -216 793 -177 846 -277 b 856 -295 911 -289 900 -268 b 859 -193 772 -178 689 -183 b 756 -138 809 -71 847 0 b 924 140 968 299 977 458 b 986 616 961 776 901 922 b 851 1045 766 1170 631 1208 b 309 1301 67 933 51 654 z m 578 1188 b 709 1168 793 1046 842 933 b 896 808 922 671 923 534 b 924 395 899 256 846 126 b 799 11 723 -115 606 -171 b 537 -204 459 -199 413 -133 b 376 -79 363 -13 356 51 b 351 102 348 154 346 206 b 483 159 642 162 771 222 b 783 227 779 237 771 243 b 762 250 745 247 735 243 b 616 188 467 192 346 242 b 345 354 351 465 357 576 b 357 577 357 577 357 577 b 412 571 467 565 522 570 b 555 574 694 598 668 656 b 657 681 617 689 593 693 b 555 700 516 695 479 687 b 412 671 348 645 288 613 b 279 613 270 614 262 614 b 242 614 235 603 240 594 b 235 589 232 583 232 576 b 227 492 222 407 222 322 b 150 392 110 491 104 593 b 96 735 148 880 227 997 b 304 1111 433 1210 578 1188 z m 358 607 b 385 620 413 631 442 641 b 471 651 499 659 529 663 b 550 666 637 668 600 626 b 585 609 541 603 520 601 b 492 597 464 597 436 599 b 410 601 384 604 358 607 z"},"w":{"x_min":0,"x_max":670,"ha":670,"o":"m 672 192 b 643 195 615 197 589 204 b 598 268 601 333 590 396 b 581 442 567 497 520 518 b 412 567 372 423 393 345 b 407 291 443 246 488 214 b 502 203 517 196 532 189 b 524 143 513 85 480 51 b 463 32 450 40 436 58 b 423 74 415 94 409 114 b 391 166 385 222 382 277 b 379 326 258 326 258 277 b 258 273 258 269 258 264 b 258 264 258 264 258 263 b 245 203 230 142 203 86 b 196 70 176 26 155 28 b 135 29 123 76 119 90 b 87 202 95 322 114 435 b 121 481 0 483 -11 435 b -28 356 -31 272 -18 192 b -7 123 16 39 84 5 b 192 -48 248 42 279 137 b 301 71 343 13 416 0 b 528 -19 567 83 584 174 b 608 169 633 166 658 164 b 667 163 686 163 690 174 b 693 185 681 191 672 192 z m 538 225 b 535 227 532 229 528 232 b 490 259 459 297 445 342 b 432 386 431 451 465 486 b 514 536 540 380 542 358 b 546 314 544 269 538 225 z"},"-":{"x_min":0,"x_max":430,"ha":430,"o":"m 328 341 b 242 340 153 336 68 319 b 45 315 43 293 68 290 b 154 278 242 278 328 281 b 346 282 380 288 380 311 b 380 334 345 341 328 341 z"},"E":{"x_min":0,"x_max":1217,"ha":1217,"o":"m 990 978 b 974 1042 923 1089 864 1115 b 718 1177 532 1118 398 1051 b 323 1013 253 968 192 911 b 133 856 77 791 57 712 b 15 545 164 448 306 413 b 368 398 431 389 495 387 b 446 351 401 310 362 267 b 300 200 241 118 231 24 b 223 -62 270 -141 337 -192 b 487 -306 709 -271 870 -200 b 1007 -140 1204 -4 1161 172 b 1137 267 1054 298 964 302 b 916 304 866 303 819 290 b 796 284 730 267 734 233 b 735 226 741 223 747 220 b 748 220 749 220 750 219 b 767 213 796 227 786 238 b 795 260 876 269 890 270 b 927 273 967 274 1004 268 b 1080 255 1117 184 1113 111 b 1103 -33 937 -137 817 -185 b 684 -237 500 -260 390 -147 b 343 -99 321 -32 333 35 b 347 110 397 175 447 228 b 501 285 562 335 629 375 b 641 382 653 389 665 396 b 747 409 827 433 902 469 b 917 476 924 492 914 506 b 904 521 878 527 860 526 b 782 524 703 502 629 467 b 562 457 495 456 426 466 b 320 481 173 523 162 651 b 151 786 275 897 373 971 b 479 1051 632 1117 767 1103 b 837 1096 907 1055 930 985 b 955 913 927 836 896 769 b 827 797 748 799 673 788 b 623 781 574 768 527 747 b 492 732 439 707 417 673 b 394 636 449 627 474 626 b 526 623 580 636 630 647 b 683 660 734 675 787 689 b 816 697 846 704 877 709 b 889 712 901 714 913 715 b 921 716 929 717 938 718 b 943 718 947 718 950 719 b 968 707 1015 718 997 738 b 984 751 965 754 947 752 b 979 823 1009 901 990 978 z m 783 722 b 695 700 609 671 518 659 b 507 658 496 656 485 656 b 463 656 469 662 479 674 b 493 688 513 699 530 708 b 569 730 611 744 655 753 b 726 768 803 770 870 742 b 841 737 812 730 783 722 z"},"s":{"x_min":0,"x_max":285,"ha":285,"o":"m 295 199 b 253 193 215 175 180 152 b 152 180 123 206 105 230 b 72 271 41 328 45 383 b 47 412 68 467 108 457 b 145 446 156 400 156 368 b 156 348 206 348 206 368 b 206 461 110 524 29 467 b -9 440 -41 392 -51 346 b -62 298 -42 250 -15 211 b 15 168 55 133 94 98 b 98 94 101 91 105 87 b 84 63 67 35 63 5 b 48 -105 199 -120 247 -40 b 282 19 251 74 207 124 b 237 147 272 166 308 172 b 341 177 320 203 295 199 z m 186 -45 b 150 -91 114 -39 115 -5 b 115 17 125 37 137 54 b 142 50 146 45 151 40 b 167 20 208 -17 186 -45 z"},">":{"x_min":0,"x_max":427,"ha":427,"o":"m 375 283 b 365 327 302 339 265 344 b 209 352 146 351 92 368 b 77 373 31 357 59 344 b 92 328 121 313 158 305 b 177 300 196 297 216 294 b 228 292 252 292 263 284 b 291 263 215 228 200 221 b 161 200 120 185 79 167 b 60 159 42 144 59 124 b 75 106 114 106 134 113 b 189 133 244 156 295 185 b 328 203 386 238 375 283 z"},"l":{"x_min":0,"x_max":296,"ha":296,"o":"m 284 169 b 263 128 241 87 211 51 b 200 37 184 17 167 10 b 141 0 133 32 128 51 b 104 137 107 234 105 322 b 100 516 114 708 114 901 b 114 950 -4 950 -10 901 b -25 781 -28 659 -28 538 b -28 421 -26 302 -4 188 b 11 104 43 -22 149 -26 b 243 -29 298 91 333 161 b 343 180 292 186 284 169 z"},"8":{"x_min":0,"x_max":615,"ha":615,"o":"m 444 705 b 341 825 79 785 52 615 b 38 526 97 450 158 392 b 160 390 162 388 164 386 b 161 385 158 383 157 380 b 109 301 80 197 77 104 b 74 19 96 -68 152 -134 b 247 -245 445 -266 530 -129 b 553 -92 568 -55 565 -10 b 561 34 545 77 524 116 b 508 145 490 173 471 199 b 487 295 503 391 504 489 b 504 563 495 646 444 705 z m 281 739 b 401 739 444 623 448 522 b 451 434 439 345 425 257 b 401 284 377 310 352 335 b 286 400 202 459 167 548 b 132 636 178 739 281 739 z m 434 -165 b 394 -193 346 -201 298 -187 b 198 -155 142 -52 132 47 b 121 148 148 265 197 356 b 254 303 313 250 363 191 b 423 121 482 39 487 -56 b 489 -103 473 -137 434 -165 z"},"\\":{"x_min":0,"x_max":586,"ha":586,"o":"m 534 -215 b 467 -29 400 157 337 344 b 306 437 274 529 239 621 b 223 666 205 711 187 755 b 168 800 149 847 118 885 b 110 907 49 905 50 880 b 51 834 71 789 85 745 b 100 698 115 651 130 604 b 159 511 187 418 215 325 b 272 136 325 -55 405 -235 b 424 -280 555 -270 534 -215 z"},"e":{"x_min":0,"x_max":334,"ha":334,"o":"m 324 176 b 308 145 289 114 265 88 b 245 65 212 31 179 29 b 110 25 104 149 103 195 b 101 228 105 261 110 294 b 168 295 230 336 240 392 b 246 427 226 463 192 473 b 150 486 107 468 73 444 b -12 382 -37 272 -25 171 b -19 120 -5 64 34 28 b 68 -4 116 -19 162 -14 b 262 -4 332 84 371 169 b 380 188 333 192 324 176 z m 136 398 b 139 410 147 437 162 440 b 183 444 188 409 186 396 b 182 369 149 330 117 325 b 122 350 129 374 136 398 z"},"b":{"x_min":0,"x_max":593,"ha":593,"o":"m 626 195 b 616 202 598 200 588 195 b 549 176 506 171 462 170 b 466 208 465 247 458 285 b 447 345 420 405 364 436 b 318 462 265 462 222 429 b 164 386 139 306 118 240 b 115 231 113 222 110 213 b 105 288 103 364 101 440 b 98 598 104 757 99 915 b 97 960 -9 959 -15 915 b -35 756 -31 593 -25 433 b -21 356 -17 280 -7 205 b 2 131 11 39 56 -23 b 70 -41 122 -47 127 -17 b 129 -2 129 14 128 30 b 134 90 145 150 162 208 b 179 267 199 334 238 383 b 259 410 301 445 325 402 b 339 377 345 347 349 319 b 355 269 353 218 346 168 b 295 164 246 152 204 112 b 171 81 146 23 178 -18 b 211 -61 292 -65 339 -50 b 401 -30 431 23 447 83 b 452 102 456 122 459 142 b 459 142 459 142 459 142 b 517 142 573 147 626 173 b 637 178 634 189 626 195 z m 281 -3 b 249 -29 217 0 219 35 b 221 67 245 95 271 112 b 292 126 316 134 341 138 b 334 92 319 27 281 -3 z"},"%":{"x_min":0,"x_max":987,"ha":987,"o":"m 908 830 b 884 838 847 837 828 818 b 667 660 529 483 396 301 b 331 211 268 119 207 26 b 178 -19 149 -65 121 -111 b 106 -135 91 -160 78 -185 b 67 -207 52 -230 50 -255 b 49 -273 87 -273 96 -266 b 141 -234 174 -181 207 -138 b 241 -92 274 -47 307 -1 b 372 89 437 180 503 269 b 636 448 779 619 929 784 b 947 804 928 823 908 830 z m 305 408 b 351 426 372 471 387 515 b 404 568 412 625 399 680 b 387 729 358 780 308 798 b 266 813 217 804 181 778 b 128 740 103 651 124 585 b 122 482 185 359 305 408 z m 197 732 b 223 770 269 790 305 754 b 331 728 344 689 348 653 b 354 592 342 504 294 460 b 282 448 268 438 254 449 b 242 458 237 481 233 495 b 230 506 229 516 227 527 b 228 528 227 530 227 531 b 224 560 225 588 228 617 b 231 639 198 649 170 646 b 172 678 182 710 197 732 z m 798 308 b 756 323 707 314 671 288 b 618 249 593 161 614 95 b 612 -9 675 -131 796 -83 b 841 -64 862 -20 877 25 b 894 77 902 135 889 189 b 878 239 849 290 798 308 z m 785 -30 b 772 -42 759 -52 744 -41 b 732 -32 727 -9 723 5 b 721 16 719 26 717 37 b 718 38 717 40 717 41 b 714 69 715 98 718 127 b 721 149 688 159 660 155 b 662 188 672 220 688 242 b 713 279 759 299 795 264 b 821 238 834 199 838 163 b 845 102 833 13 785 -30 z"},"m":{"x_min":0,"x_max":808,"ha":808,"o":"m 793 157 b 781 108 764 59 738 15 b 726 -5 691 -54 671 -12 b 663 5 661 32 656 50 b 628 147 626 256 583 348 b 568 381 539 426 501 434 b 467 442 440 422 422 395 b 390 346 368 291 349 235 b 346 272 342 309 332 345 b 317 399 276 480 207 445 b 178 431 165 396 154 368 b 138 332 127 294 118 256 b 114 241 111 227 108 213 b 106 243 105 274 106 305 b 107 343 114 384 107 422 b 99 462 10 468 -5 430 b -33 363 -23 272 -17 201 b -12 133 -4 35 45 -16 b 59 -31 108 -34 118 -10 b 124 5 125 21 124 37 b 150 147 162 262 208 365 b 213 377 219 398 229 407 b 250 427 247 388 248 375 b 250 346 249 318 248 289 b 246 224 237 148 256 86 b 267 52 345 60 355 91 b 356 93 358 94 358 96 b 391 193 415 302 474 387 b 491 411 490 397 493 376 b 494 364 494 353 495 341 b 498 318 499 294 501 271 b 505 217 509 163 519 110 b 529 63 544 11 583 -19 b 615 -44 654 -66 696 -62 b 790 -53 825 73 844 149 b 850 172 797 175 793 157 z"},"#":{"x_min":0,"x_max":893,"ha":893,"o":"m 731 917 b 645 749 582 568 523 388 b 479 386 434 383 390 379 b 442 525 501 668 556 813 b 574 861 465 867 446 830 b 369 682 311 524 260 365 b 216 359 171 352 127 345 b 93 339 115 312 141 316 b 177 322 213 327 250 332 b 248 326 246 321 244 315 b 234 284 225 252 216 220 b 164 208 113 194 63 178 b 30 168 69 146 89 152 b 128 164 167 175 206 185 b 194 141 183 97 172 52 b 151 -33 124 -128 134 -216 b 136 -241 186 -239 196 -221 b 239 -141 258 -46 282 41 b 299 99 316 156 334 213 b 381 221 427 228 474 233 b 453 163 432 92 414 21 b 401 -28 389 -77 378 -126 b 368 -175 354 -228 366 -277 b 370 -293 410 -292 418 -281 b 450 -240 464 -189 479 -141 b 495 -90 510 -40 526 10 b 549 88 574 166 600 244 b 608 244 616 245 624 245 b 658 246 658 278 624 277 b 620 277 615 276 610 276 b 614 288 618 299 622 310 b 628 327 634 344 640 361 b 643 361 647 362 651 362 b 684 362 685 393 651 393 b 651 393 651 393 651 393 b 712 563 782 729 841 899 b 858 947 749 953 731 917 z m 502 323 b 496 304 490 285 484 266 b 438 261 391 255 345 247 b 351 265 357 284 364 303 b 368 318 374 332 379 347 b 423 351 468 354 513 357 b 510 346 506 334 502 323 z"},",":{"x_min":0,"x_max":258,"ha":258,"o":"m 104 70 b 90 37 77 5 66 -29 b 57 -56 42 -86 55 -114 b 62 -129 92 -129 104 -121 b 133 -102 146 -74 162 -44 b 178 -12 193 21 206 54 b 223 96 120 106 104 70 z"},"n":{"x_min":0,"x_max":568,"ha":568,"o":"m 552 165 b 537 114 516 60 484 16 b 480 9 461 -16 452 -11 b 448 -9 444 16 443 20 b 437 45 434 71 430 97 b 420 153 421 210 413 267 b 407 314 399 381 365 418 b 341 444 307 461 270 449 b 227 435 201 384 184 346 b 156 284 133 218 113 151 b 111 168 110 184 109 201 b 106 235 105 270 106 305 b 107 343 114 384 107 422 b 99 462 10 468 -5 430 b -33 363 -23 272 -17 201 b -12 133 -4 35 45 -16 b 60 -31 108 -34 118 -11 b 122 1 124 13 124 25 b 161 129 190 238 236 338 b 245 359 260 397 281 410 b 302 425 293 404 294 391 b 294 377 295 362 295 348 b 296 292 294 235 295 178 b 296 79 318 -45 442 -46 b 540 -47 581 80 603 157 b 610 180 558 184 552 165 z"},"h":{"x_min":0,"x_max":564,"ha":564,"o":"m 550 154 b 533 103 504 49 464 11 b 462 9 446 -6 443 -4 b 437 -2 436 23 435 28 b 430 60 427 93 424 125 b 417 192 417 258 404 324 b 394 375 375 436 319 453 b 232 481 185 367 161 306 b 144 262 127 216 114 169 b 113 181 112 193 111 205 b 105 283 103 361 101 440 b 98 598 104 757 99 915 b 97 960 -9 959 -15 915 b -35 756 -31 593 -25 433 b -21 356 -17 280 -7 205 b 2 131 11 39 56 -23 b 70 -41 122 -47 127 -17 b 127 -15 128 -12 128 -9 b 128 -9 128 -8 129 -7 b 145 99 174 206 215 307 b 229 341 245 386 274 412 b 311 445 302 368 302 350 b 301 317 301 284 300 251 b 296 155 283 -30 417 -40 b 515 -48 576 69 602 146 b 609 168 557 173 550 154 z"},"z":{"x_min":0,"x_max":441,"ha":441,"o":"m 442 180 b 397 166 354 150 311 132 b 279 199 221 243 151 261 b 192 303 232 360 207 409 b 177 469 76 449 25 433 b 15 430 9 422 16 413 b 22 403 42 405 51 408 b 74 414 112 424 134 415 b 169 400 127 365 114 351 b 82 317 48 286 12 256 b -1 245 6 229 17 220 b 33 207 56 207 76 209 b 151 216 195 154 215 87 b 178 68 142 48 107 25 b 59 -6 13 -41 -25 -85 b -54 -118 -85 -166 -64 -212 b -44 -253 9 -270 51 -274 b 105 -278 159 -265 203 -232 b 292 -166 352 -38 330 74 b 328 82 326 91 323 99 b 371 120 419 139 468 154 b 501 165 462 187 442 180 z m 224 -12 b 219 -64 199 -116 169 -158 b 141 -199 87 -250 32 -234 b -38 -213 -14 -141 22 -100 b 59 -58 103 -23 150 7 b 174 22 198 36 223 50 b 226 28 226 6 224 -12 z"},"B":{"x_min":0,"x_max":1424,"ha":1424,"o":"m 66 562 b 118 531 178 535 236 545 b 251 547 267 550 282 553 b 285 481 289 410 293 338 b 301 215 312 93 326 -29 b 333 -87 341 -144 351 -201 b 361 -258 370 -325 402 -374 b 412 -393 454 -394 467 -376 b 473 -374 478 -370 479 -363 b 487 -134 513 94 556 319 b 577 424 603 528 638 629 b 672 629 706 627 739 623 b 921 603 1104 522 1202 360 b 1248 285 1275 199 1270 110 b 1264 19 1223 -69 1169 -141 b 1117 -209 1050 -267 973 -304 b 900 -339 791 -372 724 -309 b 653 -242 677 -119 706 -38 b 741 57 805 138 885 200 b 886 201 888 202 888 204 b 909 197 931 193 953 191 b 987 189 986 221 953 223 b 883 227 821 270 754 287 b 744 289 725 291 718 281 b 712 272 717 263 728 261 b 765 251 800 236 835 222 b 833 221 831 220 829 218 b 750 156 690 74 652 -19 b 618 -100 595 -202 632 -286 b 671 -378 780 -396 869 -384 b 965 -372 1057 -329 1132 -269 b 1291 -145 1394 64 1339 265 b 1282 471 1091 605 893 655 b 838 669 782 678 726 682 b 729 683 731 684 734 685 b 838 729 938 782 1030 847 b 1117 909 1211 981 1263 1077 b 1286 1117 1308 1171 1278 1213 b 1251 1249 1202 1259 1159 1256 b 1053 1247 952 1176 876 1105 b 757 995 673 856 612 707 b 589 699 566 691 543 683 b 499 681 455 676 411 670 b 408 805 406 940 406 1074 b 405 1123 284 1123 282 1074 b 276 933 275 792 279 650 b 216 639 152 627 90 614 b 63 609 30 583 66 562 z m 544 505 b 497 328 466 145 447 -38 b 447 -31 446 -23 446 -16 b 436 104 428 224 422 345 b 418 424 415 502 413 581 b 469 595 525 610 580 628 b 581 628 581 628 582 628 b 568 588 555 546 544 505 z m 775 911 b 829 993 895 1069 972 1130 b 1015 1164 1063 1193 1114 1211 b 1163 1229 1245 1232 1236 1156 b 1231 1107 1186 1057 1152 1024 b 1116 987 1074 955 1032 925 b 951 867 865 817 775 774 b 744 760 712 746 679 733 b 706 794 738 854 775 911 z"},"K":{"x_min":0,"x_max":983,"ha":983,"o":"m 220 315 b 288 328 354 353 416 384 b 418 385 420 386 421 387 b 445 375 467 361 487 344 b 496 250 507 157 521 64 b 541 -62 561 -191 605 -311 b 613 -334 681 -334 680 -305 b 676 -178 653 -50 639 77 b 635 115 631 153 628 191 b 692 108 752 20 819 -60 b 906 -164 1003 -262 1119 -332 b 1063 -370 1012 -414 967 -460 b 942 -485 1009 -495 1027 -480 b 1073 -440 1117 -395 1165 -357 b 1285 -418 1445 -455 1573 -403 b 1602 -392 1636 -374 1648 -344 b 1660 -315 1643 -286 1621 -268 b 1564 -222 1475 -215 1405 -221 b 1327 -227 1251 -255 1180 -294 b 990 -176 853 22 708 188 b 679 221 650 254 619 286 b 614 340 610 395 607 450 b 606 471 605 491 604 512 b 654 554 700 600 743 648 b 860 777 955 926 1079 1047 b 1139 1106 1212 1171 1301 1173 b 1381 1176 1451 1110 1441 1030 b 1385 1038 1327 1026 1272 1008 b 1228 994 1186 976 1145 953 b 1125 942 1105 930 1086 916 b 1074 908 1052 897 1046 883 b 1032 855 1072 848 1091 850 b 1132 853 1176 873 1213 889 b 1256 906 1299 926 1342 943 b 1365 952 1388 961 1412 968 b 1420 970 1476 979 1479 984 b 1469 964 1522 958 1531 976 b 1541 999 1528 1008 1506 1011 b 1501 1014 1495 1016 1489 1018 b 1489 1018 1490 1018 1490 1019 b 1503 1078 1473 1137 1424 1170 b 1370 1207 1299 1210 1237 1195 b 1167 1178 1108 1135 1056 1088 b 995 1033 937 975 880 915 b 786 816 699 710 601 615 b 597 814 602 1013 599 1212 b 599 1258 490 1256 484 1212 b 452 980 457 739 474 504 b 445 482 414 460 382 440 b 379 441 376 442 374 442 b 309 458 242 457 177 441 b 144 433 31 402 53 348 b 75 293 177 307 220 315 z m 1417 -252 b 1454 -249 1491 -252 1527 -263 b 1559 -273 1620 -306 1586 -347 b 1540 -403 1430 -392 1369 -376 b 1317 -362 1268 -343 1222 -318 b 1281 -283 1348 -258 1417 -252 z m 1391 996 b 1315 974 1244 937 1170 909 b 1153 902 1136 896 1119 891 b 1119 891 1120 891 1120 891 b 1153 915 1188 935 1225 952 b 1281 978 1353 1008 1418 1003 b 1405 1000 1395 997 1391 996 z m 480 421 b 481 413 482 405 482 397 b 475 401 468 405 461 409 b 468 413 474 417 480 421 z m 119 378 b 128 394 160 401 177 407 b 216 420 258 425 299 422 b 313 421 327 419 341 416 b 283 385 222 362 159 352 b 151 351 143 350 134 350 b 119 351 109 362 119 378 z"},"R":{"x_min":0,"x_max":1112,"ha":1112,"o":"m 946 628 b 1039 696 1126 776 1189 873 b 1243 957 1316 1087 1269 1187 b 1220 1295 1081 1301 983 1273 b 869 1241 768 1172 683 1091 b 504 919 388 686 316 451 b 316 451 316 451 316 450 b 312 450 309 450 306 450 b 274 462 241 462 210 442 b 183 425 208 407 228 403 b 251 397 275 394 299 392 b 250 217 223 38 204 -143 b 194 -46 186 51 181 148 b 169 372 170 597 187 821 b 196 947 210 1073 227 1198 b 234 1243 115 1246 108 1198 b 36 756 33 301 90 -144 b 106 -270 127 -398 168 -518 b 176 -542 245 -541 243 -513 b 242 -476 238 -441 235 -405 b 254 -155 278 101 341 344 b 349 334 356 323 364 313 b 394 271 419 226 445 182 b 496 94 553 7 619 -72 b 714 -187 829 -288 963 -353 b 867 -438 786 -538 724 -650 b 713 -669 765 -675 775 -658 b 835 -551 913 -454 1005 -372 b 1040 -387 1077 -400 1115 -409 b 1214 -434 1315 -438 1415 -418 b 1489 -403 1592 -371 1615 -289 b 1640 -206 1552 -150 1482 -137 b 1381 -118 1277 -154 1188 -199 b 1128 -230 1072 -266 1019 -307 b 1016 -305 1013 -304 1010 -302 b 845 -214 718 -72 613 80 b 555 165 505 255 442 337 b 429 354 411 375 391 394 b 469 401 546 422 616 448 b 734 492 844 554 946 628 z m 1150 -264 b 1233 -213 1332 -160 1433 -163 b 1475 -165 1520 -178 1546 -212 b 1577 -252 1559 -301 1523 -330 b 1456 -385 1349 -390 1267 -381 b 1195 -373 1126 -355 1060 -326 b 1089 -304 1119 -284 1150 -264 z m 591 910 b 656 1002 733 1088 825 1154 b 910 1214 1048 1292 1153 1242 b 1272 1184 1223 1039 1169 953 b 1111 860 1033 780 947 712 b 849 635 739 568 623 519 b 540 484 458 464 372 455 b 423 615 492 769 591 910 z"},"T":{"x_min":0,"x_max":1381,"ha":1381,"o":"m 331 1299 b 272 1284 215 1259 165 1224 b 125 1197 62 1154 51 1102 b 38 1037 122 1040 162 1051 b 242 1073 317 1108 392 1142 b 480 1182 568 1220 657 1254 b 846 1177 958 978 1023 786 b 1024 684 1026 583 1028 481 b 1032 340 1039 198 1055 58 b 1062 -10 1073 -78 1086 -144 b 1099 -212 1111 -286 1146 -346 b 1157 -365 1208 -367 1210 -341 b 1211 -332 1212 -323 1212 -314 b 1216 -312 1218 -308 1218 -304 b 1232 -32 1210 241 1154 507 b 1150 780 1154 1054 1156 1327 b 1156 1373 1039 1374 1037 1327 b 1029 1195 1025 1062 1024 930 b 956 1076 857 1207 708 1274 b 755 1291 803 1308 851 1324 b 1026 1381 1207 1423 1391 1439 b 1481 1447 1572 1449 1662 1442 b 1707 1439 1756 1433 1788 1398 b 1800 1384 1809 1365 1810 1346 b 1810 1340 1808 1332 1806 1325 b 1802 1325 1798 1324 1795 1323 b 1792 1322 1788 1321 1784 1320 b 1771 1326 1747 1324 1744 1312 b 1744 1311 1743 1310 1743 1309 b 1652 1284 1562 1258 1474 1225 b 1425 1207 1370 1189 1326 1162 b 1304 1148 1286 1121 1318 1107 b 1354 1092 1406 1099 1443 1104 b 1493 1110 1541 1124 1587 1143 b 1633 1163 1677 1187 1717 1216 b 1736 1229 1755 1243 1769 1260 b 1821 1259 1870 1300 1863 1356 b 1855 1412 1800 1448 1749 1461 b 1681 1479 1605 1477 1535 1477 b 1459 1476 1383 1470 1307 1461 b 1085 1434 869 1372 659 1292 b 554 1327 438 1328 331 1299 z m 1583 1179 b 1545 1161 1505 1147 1464 1138 b 1446 1134 1428 1132 1409 1131 b 1399 1130 1388 1130 1377 1130 b 1367 1130 1341 1123 1356 1136 b 1372 1150 1398 1157 1417 1165 b 1435 1173 1452 1180 1471 1187 b 1509 1202 1548 1216 1587 1228 b 1630 1242 1675 1255 1719 1267 b 1684 1227 1625 1199 1583 1179 z m 413 1191 b 339 1158 266 1123 190 1096 b 172 1090 147 1078 128 1077 b 101 1075 102 1094 112 1114 b 125 1142 157 1166 181 1186 b 278 1261 405 1297 527 1286 b 555 1284 581 1279 606 1272 b 541 1246 477 1219 413 1191 z"},"P":{"x_min":0,"x_max":989,"ha":989,"o":"m 147 586 b 121 590 88 594 65 577 b 43 562 47 540 65 523 b 123 469 230 470 304 470 b 339 470 373 471 408 474 b 409 446 410 419 412 392 b 419 262 427 133 441 4 b 455 -119 467 -254 528 -364 b 537 -380 590 -384 589 -359 b 588 -311 583 -263 578 -215 b 577 -3 596 211 638 419 b 737 396 836 379 939 374 b 981 372 981 415 939 414 b 839 411 741 427 644 451 b 649 473 654 495 659 518 b 797 554 929 610 1051 683 b 1186 765 1320 868 1406 1002 b 1469 1100 1550 1301 1422 1384 b 1362 1423 1280 1419 1214 1402 b 1136 1383 1067 1341 1005 1291 b 888 1197 803 1068 740 932 b 688 816 649 694 619 570 b 592 563 565 556 537 550 b 537 761 547 970 571 1180 b 576 1228 453 1229 444 1180 b 407 966 400 746 406 528 b 398 527 390 526 382 525 b 304 548 226 571 147 586 z m 162 525 b 153 526 95 544 112 558 b 119 564 167 548 175 547 b 212 538 248 529 284 519 b 244 518 202 516 162 525 z m 580 387 b 567 317 556 247 548 177 b 544 251 541 325 539 399 b 539 414 539 430 538 445 b 555 440 572 436 588 432 b 585 417 582 402 580 387 z m 712 712 b 789 962 928 1252 1186 1358 b 1254 1385 1361 1406 1410 1335 b 1446 1282 1435 1206 1412 1150 b 1357 1016 1247 912 1134 826 b 999 723 842 641 677 588 b 687 629 699 671 712 712 z m 603 504 b 600 490 597 477 595 463 b 576 468 557 474 538 479 b 538 483 538 487 538 490 b 551 493 565 495 578 498 b 587 500 595 502 603 504 z"},"|":{"x_min":0,"x_max":246,"ha":246,"o":"m 191 -2 b 188 86 184 174 183 262 b 182 440 186 618 190 796 b 191 845 70 845 65 796 b 48 617 47 435 54 255 b 58 167 63 79 72 -9 b 81 -99 89 -193 125 -276 b 134 -297 181 -294 186 -272 b 204 -183 194 -91 191 -2 z"},"t":{"x_min":0,"x_max":296,"ha":296,"o":"m 284 169 b 263 128 241 87 212 51 b 200 37 184 17 167 10 b 141 0 134 32 128 51 b 104 137 107 234 105 322 b 102 424 105 525 108 627 b 119 627 130 626 141 626 b 173 625 173 656 141 656 b 130 656 120 657 109 657 b 112 738 114 820 114 901 b 115 950 -4 950 -10 901 b -20 821 -24 740 -26 659 b -37 660 -48 660 -58 660 b -90 661 -90 631 -58 630 b -48 630 -37 630 -27 630 b -27 599 -28 568 -28 538 b -28 421 -25 302 -4 188 b 12 104 44 -22 149 -26 b 243 -29 299 91 334 161 b 343 180 293 186 284 169 z"},"M":{"x_min":0,"x_max":1502,"ha":1502,"o":"m 74 1195 b 55 935 42 675 56 415 b 63 287 77 160 101 33 b 113 -29 128 -92 148 -153 b 163 -201 175 -254 229 -266 b 242 -276 274 -273 274 -257 b 270 -94 273 67 294 229 b 314 389 346 548 387 704 b 407 780 431 856 460 929 b 485 995 514 1064 563 1117 b 587 1144 627 1179 661 1146 b 687 1121 695 1079 700 1045 b 712 967 721 889 729 811 b 746 632 750 453 759 273 b 696 275 632 264 572 241 b 486 210 392 162 342 82 b 339 75 345 70 349 67 b 381 45 421 65 452 77 b 493 93 533 111 573 130 b 616 151 659 172 704 190 b 726 200 748 208 770 216 b 780 219 789 222 799 225 b 800 225 806 226 812 228 b 820 227 828 228 836 230 b 836 230 836 229 835 229 b 817 209 870 199 883 213 b 902 235 889 251 869 260 b 869 263 869 266 869 268 b 894 436 930 603 980 766 b 1004 846 1032 925 1068 1000 b 1085 1035 1172 1220 1226 1181 b 1254 1160 1264 1102 1268 1071 b 1273 1030 1273 988 1273 947 b 1273 859 1270 771 1265 683 b 1257 509 1251 335 1258 162 b 1266 -26 1281 -224 1344 -403 b 1355 -436 1459 -433 1451 -394 b 1434 -300 1413 -207 1401 -112 b 1388 -17 1379 79 1374 175 b 1365 364 1367 554 1362 744 b 1360 841 1355 940 1336 1036 b 1325 1094 1308 1195 1242 1217 b 1169 1241 1110 1170 1076 1116 b 1026 1040 989 955 959 869 b 915 748 882 623 856 497 b 848 602 838 707 822 811 b 809 897 796 988 767 1071 b 747 1131 705 1193 635 1195 b 566 1196 514 1143 478 1090 b 432 1022 404 942 377 866 b 321 700 283 527 255 355 b 238 246 224 135 218 24 b 215 48 211 73 209 98 b 194 218 186 340 183 461 b 178 706 191 950 200 1195 b 202 1244 77 1245 74 1195 z m 687 222 b 637 202 588 178 540 155 b 513 142 486 129 458 118 b 453 115 430 104 412 97 b 456 151 525 186 588 210 b 637 229 689 242 740 243 b 722 236 704 229 687 222 z"},"g":{"x_min":0,"x_max":542,"ha":542,"o":"m 532 176 b 512 113 461 68 402 34 b 401 66 400 97 400 128 b 399 183 398 238 397 293 b 396 346 397 402 383 453 b 372 493 281 482 273 445 b 271 439 270 432 269 426 b 261 435 251 442 240 448 b 196 471 140 464 97 443 b -21 383 -45 240 -19 121 b -7 68 17 15 69 -8 b 118 -29 174 -15 211 23 b 250 62 259 120 270 172 b 271 177 272 183 273 189 b 276 119 279 49 283 -21 b 276 -24 269 -26 263 -29 b 148 -73 3 -97 -65 -211 b -100 -269 -109 -344 -66 -400 b -28 -451 38 -475 101 -473 b 170 -470 237 -436 287 -390 b 348 -336 378 -258 392 -178 b 401 -122 403 -64 403 -5 b 480 33 558 87 579 169 b 584 190 538 193 532 176 z m 203 114 b 197 96 191 77 180 60 b 174 50 152 18 137 22 b 124 26 113 53 108 65 b 100 84 95 106 92 127 b 80 206 87 294 124 366 b 141 400 171 446 213 417 b 232 403 244 384 253 363 b 241 280 227 195 203 114 z m 136 -435 b 69 -455 -9 -424 -35 -356 b -60 -289 -20 -211 31 -167 b 101 -108 197 -86 284 -55 b 289 -182 287 -389 136 -435 z"},"j":{"x_min":0,"x_max":255,"ha":255,"o":"m 246 176 b 226 113 175 68 116 34 b 115 66 114 97 114 128 b 113 183 112 238 111 293 b 110 346 111 402 97 453 b 86 493 -5 482 -13 445 b -30 366 -16 276 -13 197 b -11 124 -7 51 -3 -21 b -10 -24 -17 -26 -23 -29 b -138 -73 -283 -97 -351 -211 b -386 -269 -395 -344 -352 -400 b -314 -451 -248 -475 -185 -473 b -116 -470 -49 -436 1 -390 b 62 -336 92 -258 106 -178 b 115 -122 117 -64 117 -5 b 194 33 272 87 293 169 b 298 190 252 193 246 176 z m -150 -435 b -217 -455 -295 -424 -321 -356 b -346 -289 -306 -211 -255 -167 b -185 -108 -89 -86 -2 -55 b 3 -182 1 -389 -150 -435 z m 7 569 b 15 558 47 555 56 567 b 82 600 207 736 141 772 b 113 786 78 772 56 754 b 41 742 30 727 20 710 b 13 732 2 752 -14 763 b -43 784 -83 766 -86 731 b -91 686 -67 649 -40 616 b -27 601 -12 581 7 569 z"},"i":{"x_min":0,"x_max":269,"ha":269,"o":"m 258 168 b 240 120 221 67 186 29 b 131 -31 118 86 114 119 b 101 227 111 337 108 446 b 107 496 -15 496 -19 446 b -26 365 -25 284 -18 203 b -12 136 -3 57 54 12 b 93 -20 158 -36 204 -10 b 261 23 285 102 306 160 b 313 181 264 185 258 168 z m 10 569 b 18 558 50 555 59 567 b 85 600 210 736 144 772 b 116 786 81 772 59 754 b 44 742 33 727 23 710 b 16 732 5 752 -11 763 b -40 784 -80 766 -83 731 b -88 686 -64 649 -37 616 b -24 601 -9 581 10 569 z"},"y":{"x_min":0,"x_max":558,"ha":558,"o":"m 549 176 b 529 113 478 68 419 34 b 418 66 417 97 417 128 b 416 183 415 238 414 293 b 413 346 414 402 400 453 b 389 493 298 482 290 445 b 285 425 283 404 282 383 b 263 265 215 13 155 37 b 130 46 116 93 110 116 b 102 149 99 183 98 217 b 96 295 108 373 104 450 b 101 498 -3 494 -12 450 b -31 357 -31 248 -8 155 b 11 80 68 -8 155 -3 b 243 1 270 94 291 165 b 291 165 291 165 291 165 b 294 103 297 41 300 -21 b 293 -24 286 -26 280 -29 b 165 -73 20 -97 -48 -211 b -83 -269 -92 -344 -49 -400 b -11 -451 55 -475 118 -473 b 187 -470 254 -436 304 -390 b 365 -336 395 -258 409 -178 b 418 -122 420 -64 420 -5 b 497 33 575 87 596 169 b 601 190 555 193 549 176 z m 153 -435 b 86 -455 8 -424 -18 -356 b -43 -289 -3 -211 48 -167 b 118 -108 214 -86 301 -55 b 306 -182 304 -389 153 -435 z"},"@":{"x_min":0,"x_max":1139,"ha":1139,"o":"m 1086 516 b 1070 634 994 731 889 783 b 665 893 393 806 231 630 b 71 456 -4 183 93 -39 b 147 -162 261 -233 392 -245 b 534 -258 672 -205 787 -125 b 828 -96 753 -77 728 -91 b 641 -143 546 -194 442 -196 b 348 -197 259 -156 208 -74 b 101 100 140 333 244 498 b 338 649 506 776 691 766 b 783 761 872 715 924 639 b 983 553 986 439 957 342 b 943 291 920 241 885 201 b 863 175 812 115 776 144 b 733 178 718 243 709 295 b 700 356 693 418 700 480 b 702 493 686 497 671 496 b 642 569 539 554 482 528 b 401 491 331 421 291 342 b 257 271 215 142 311 101 b 405 61 483 144 538 210 b 569 247 595 286 619 327 b 618 312 618 298 619 283 b 622 227 637 166 674 123 b 765 19 917 89 989 177 b 1064 269 1101 398 1086 516 z m 520 269 b 497 238 471 210 441 185 b 429 175 400 147 383 148 b 388 148 379 152 376 157 b 370 167 368 177 367 188 b 359 262 401 347 441 406 b 471 449 591 590 624 478 b 625 473 630 470 637 468 b 603 399 567 331 520 269 z"},".":{"x_min":0,"x_max":239,"ha":239,"o":"m 85 63 b 76 37 67 10 60 -17 b 56 -29 53 -41 51 -53 b 48 -69 51 -75 62 -87 b 76 -103 116 -103 130 -87 b 160 -53 174 4 188 47 b 202 91 99 99 85 63 z"},"p":{"x_min":0,"x_max":540,"ha":540,"o":"m 530 174 b 510 158 487 151 462 149 b 469 198 466 250 458 297 b 447 355 423 420 370 452 b 242 530 173 313 153 229 b 139 176 129 123 120 69 b 113 197 111 325 106 453 b 105 501 -14 501 -16 453 b -24 315 -19 177 -7 39 b -2 -29 6 -97 16 -164 b 26 -234 37 -303 76 -363 b 83 -376 120 -381 126 -363 b 140 -319 141 -276 139 -231 b 147 -138 157 -45 171 47 b 188 156 206 274 261 371 b 272 391 287 420 309 431 b 343 447 355 396 358 373 b 364 321 365 268 361 215 b 359 194 357 172 352 151 b 344 151 336 150 328 150 b 277 145 207 122 197 63 b 186 3 248 -24 298 -23 b 365 -22 422 19 446 82 b 450 94 454 106 457 119 b 500 121 541 132 576 159 b 595 174 545 186 530 174 z m 320 64 b 313 52 292 22 277 22 b 262 21 253 41 252 53 b 252 70 260 85 273 97 b 293 114 318 120 345 122 b 339 101 331 82 320 64 z"},"X":{"x_min":0,"x_max":1195,"ha":1195,"o":"m 1006 843 b 987 838 992 826 1002 819 b 988 805 974 790 961 776 b 900 712 843 646 787 579 b 752 683 711 785 655 880 b 591 989 501 1121 360 1120 b 212 1120 122 994 52 881 b 41 863 91 857 101 873 b 167 978 312 1176 453 1053 b 502 1010 532 947 560 889 b 592 825 619 759 644 692 b 668 624 690 555 711 485 b 678 445 646 405 614 364 b 553 288 493 211 430 135 b 398 96 366 57 332 20 b 322 8 226 -94 216 -85 b 203 -73 154 -83 172 -100 b 224 -144 289 -82 325 -47 b 388 10 441 78 495 143 b 573 239 649 336 726 432 b 783 238 838 43 940 -133 b 993 -223 1060 -308 1139 -377 b 1008 -436 884 -511 772 -592 b 739 -617 800 -633 821 -620 b 939 -547 1057 -471 1180 -410 b 1286 -491 1411 -545 1549 -551 b 1664 -556 1824 -524 1887 -416 b 1914 -370 1908 -316 1863 -285 b 1815 -251 1750 -249 1693 -249 b 1533 -247 1374 -283 1223 -341 b 1094 -224 1004 -59 942 101 b 888 239 850 385 804 527 b 806 530 809 533 811 535 b 891 632 974 728 1063 817 b 1135 822 1206 832 1276 843 b 1346 854 1416 865 1486 864 b 1494 849 1522 837 1544 842 b 1567 848 1591 856 1599 881 b 1608 910 1569 918 1549 919 b 1445 923 1346 902 1246 881 b 1266 888 1287 895 1307 903 b 1383 933 1462 967 1527 1018 b 1563 1046 1645 1131 1568 1161 b 1503 1187 1418 1140 1363 1110 b 1241 1045 1133 950 1034 851 b 1024 848 1015 846 1006 843 z m 1598 -283 b 1634 -280 1670 -278 1706 -279 b 1740 -280 1779 -280 1810 -296 b 1884 -336 1829 -422 1780 -454 b 1673 -523 1528 -511 1415 -465 b 1358 -441 1307 -410 1261 -373 b 1367 -328 1479 -294 1598 -283 z m 1499 890 b 1499 890 1498 889 1498 889 b 1498 889 1498 889 1498 889 b 1498 890 1499 890 1499 890 z m 1152 902 b 1216 959 1282 1016 1355 1061 b 1390 1084 1427 1104 1466 1119 b 1482 1125 1503 1136 1521 1136 b 1557 1137 1546 1106 1531 1085 b 1478 1008 1374 967 1291 934 b 1237 913 1182 895 1127 878 b 1136 886 1144 894 1152 902 z"},"*":{"x_min":0,"x_max":438,"ha":438,"o":"m 364 579 b 334 581 305 583 275 583 b 303 609 331 634 361 658 b 380 674 329 686 314 674 b 289 653 265 632 242 611 b 240 647 237 684 233 720 b 231 741 179 740 181 720 b 184 688 186 656 187 624 b 161 646 133 667 105 686 b 93 695 50 683 67 670 b 106 641 143 611 179 579 b 153 577 128 575 102 571 b 84 568 66 566 53 551 b 37 531 85 523 97 536 b 106 548 142 546 156 547 b 164 548 172 548 180 549 b 148 515 117 479 89 442 b 74 422 121 414 132 427 b 151 451 170 473 190 495 b 190 469 189 442 189 415 b 188 394 242 394 243 415 b 245 450 245 484 245 518 b 265 498 284 478 303 457 b 315 443 366 453 348 472 b 323 500 297 527 270 552 b 301 552 333 551 364 549 b 397 546 396 577 364 579 z"},"Y":{"x_min":0,"x_max":1390,"ha":1390,"o":"m 140 1189 b 101 1183 62 1162 51 1121 b 44 1100 95 1096 101 1114 b 119 1170 182 1169 220 1132 b 260 1094 274 1029 287 978 b 319 862 352 745 412 640 b 470 538 556 452 674 428 b 791 405 912 445 1010 508 b 1066 545 1118 587 1165 634 b 1179 384 1170 127 1075 -108 b 997 -302 836 -524 610 -547 b 503 -558 392 -505 362 -397 b 330 -282 374 -155 433 -57 b 494 43 579 132 670 207 b 718 247 774 286 836 299 b 893 310 901 269 891 229 b 799 202 713 157 638 96 b 600 65 539 18 529 -33 b 519 -82 565 -108 608 -100 b 661 -91 713 -46 754 -14 b 804 25 848 70 887 120 b 906 145 930 175 943 207 b 953 210 963 212 973 214 b 1011 221 986 251 958 246 b 956 245 954 245 952 244 b 953 250 953 255 952 261 b 949 311 902 333 857 333 b 739 334 633 239 552 162 b 464 78 382 -18 333 -131 b 288 -236 262 -381 330 -482 b 392 -575 505 -610 613 -605 b 872 -593 1070 -398 1174 -174 b 1289 70 1302 350 1279 615 b 1275 662 1270 708 1265 754 b 1322 835 1365 926 1392 1023 b 1420 1124 1432 1240 1385 1338 b 1363 1383 1328 1428 1279 1444 b 1239 1457 1187 1451 1159 1417 b 1126 1376 1133 1306 1133 1256 b 1133 1187 1130 1119 1134 1050 b 1141 939 1151 829 1159 719 b 1154 713 1149 708 1144 702 b 1061 610 956 528 836 493 b 779 476 718 474 665 502 b 609 533 566 584 531 637 b 458 749 421 881 363 1001 b 320 1091 259 1206 140 1189 z m 871 181 b 810 82 717 -5 614 -60 b 598 -68 587 -73 583 -52 b 580 -34 591 -17 601 -4 b 619 19 640 40 662 59 b 705 98 753 131 805 157 b 828 168 851 178 874 187 b 873 185 872 183 871 181 z m 1219 1070 b 1207 1143 1188 1215 1188 1290 b 1189 1321 1187 1359 1200 1389 b 1222 1438 1270 1414 1297 1384 b 1383 1287 1364 1135 1328 1022 b 1309 962 1284 904 1252 850 b 1241 923 1230 996 1219 1070 z"},"c":{"x_min":0,"x_max":378,"ha":378,"o":"m 368 183 b 328 118 291 45 220 8 b 134 -37 102 72 96 138 b 88 212 99 289 129 357 b 136 374 144 389 153 404 b 164 424 176 433 190 407 b 210 371 209 326 209 286 b 209 265 262 265 263 286 b 263 336 266 401 230 441 b 196 478 136 470 96 451 b -13 400 -39 253 -24 144 b -17 90 0 33 44 -3 b 84 -37 138 -50 188 -39 b 300 -15 368 78 415 175 b 425 195 377 197 368 183 z"},"!":{"x_min":0,"x_max":246,"ha":246,"o":"m 188 436 b 184 495 179 553 171 612 b 163 666 162 733 128 778 b 116 794 71 792 62 773 b 39 725 56 656 58 605 b 62 546 65 488 68 429 b 73 311 73 193 72 76 b 71 28 193 27 195 76 b 199 196 196 316 188 436 z m 117 -45 b 89 -108 98 -188 95 -255 b 93 -292 189 -293 190 -255 b 192 -188 200 -107 170 -45 b 162 -30 125 -29 117 -45 z"},"/":{"x_min":0,"x_max":788,"ha":788,"o":"m 633 834 b 512 672 408 496 309 321 b 260 233 213 145 169 55 b 125 -35 77 -128 51 -225 b 44 -249 91 -249 102 -237 b 173 -162 215 -63 263 27 b 310 117 359 205 410 293 b 511 470 626 637 735 809 b 758 847 653 861 633 834 z"},"[":{"x_min":0,"x_max":419,"ha":419,"o":"m 355 -274 b 338 -264 314 -264 295 -270 b 284 -273 271 -280 259 -282 b 256 -279 253 -276 251 -272 b 242 -250 233 -229 225 -205 b 209 -155 199 -103 191 -51 b 174 63 166 177 163 292 b 160 404 159 517 162 630 b 164 683 165 737 172 790 b 175 810 174 847 187 862 b 205 882 266 873 288 870 b 314 867 338 894 302 899 b 254 907 201 907 153 896 b 104 885 94 848 84 803 b 58 691 55 576 52 462 b 48 346 49 231 57 115 b 64 4 74 -110 107 -218 b 123 -267 142 -319 194 -339 b 250 -361 316 -345 363 -308 b 376 -297 366 -281 355 -274 z"},"6":{"x_min":0,"x_max":602,"ha":602,"o":"m 171 -157 b 237 -197 327 -195 399 -173 b 460 -154 521 -113 543 -51 b 564 11 549 81 494 120 b 398 189 262 175 160 114 b 157 227 186 341 231 443 b 257 504 291 562 330 615 b 349 643 370 669 393 694 b 411 711 457 756 485 747 b 505 741 545 761 512 773 b 441 797 372 739 320 697 b 258 647 207 583 166 514 b 83 376 28 196 59 34 b 73 -39 106 -116 171 -157 z m 429 114 b 486 87 510 27 491 -33 b 473 -91 422 -129 363 -140 b 234 -163 177 -41 164 68 b 237 127 340 155 429 114 z"},"r":{"x_min":0,"x_max":450,"ha":450,"o":"m 436 175 b 423 137 410 99 390 65 b 384 53 368 19 354 17 b 335 14 334 56 332 68 b 320 158 330 250 327 340 b 325 382 230 385 214 350 b 214 349 214 349 214 349 b 213 349 213 349 213 349 b 213 348 213 348 213 348 b 197 306 178 265 151 229 b 144 220 117 177 100 183 b 94 185 89 200 86 215 b 122 230 149 262 167 298 b 189 343 209 410 185 458 b 175 478 155 491 133 495 b 85 503 45 474 16 439 b -43 367 -60 209 37 159 b 112 119 169 168 210 231 b 211 200 213 169 217 138 b 224 81 242 19 297 -9 b 408 -66 461 89 486 167 b 493 189 442 193 436 175 z m 89 380 b 92 394 106 470 125 459 b 158 441 135 358 127 333 b 119 310 103 274 80 253 b 73 296 79 338 89 380 z"},"2":{"x_min":0,"x_max":627,"ha":627,"o":"m 64 -186 b 90 -204 122 -202 152 -199 b 198 -193 244 -186 290 -180 b 370 -171 460 -152 530 -201 b 547 -213 596 -198 569 -179 b 513 -140 444 -134 377 -138 b 341 -140 304 -145 268 -149 b 245 -151 223 -154 200 -157 b 197 -157 193 -157 189 -158 b 266 -110 334 -38 387 29 b 457 118 512 216 546 324 b 582 441 590 562 530 672 b 504 719 470 756 417 772 b 370 785 318 781 273 762 b 176 722 76 579 123 473 b 131 455 183 461 174 481 b 136 567 214 689 289 730 b 337 756 397 755 438 717 b 478 681 489 629 490 577 b 492 477 459 377 418 286 b 382 203 335 124 277 55 b 245 16 211 -21 173 -54 b 136 -88 90 -114 56 -151 b 44 -165 52 -177 64 -186 z"},"{":{"x_min":0,"x_max":583,"ha":583,"o":"m 529 -289 b 520 -276 496 -279 484 -282 b 411 -301 352 -288 318 -216 b 286 -149 278 -66 278 7 b 278 81 299 162 270 233 b 256 268 229 286 198 294 b 237 393 242 505 252 610 b 257 671 264 734 286 791 b 296 817 310 840 330 861 b 349 880 394 915 422 895 b 434 886 479 898 461 912 b 415 948 348 926 305 895 b 249 854 209 787 186 723 b 131 572 137 403 54 262 b 29 220 126 214 146 222 b 147 222 149 223 151 224 b 151 223 151 223 151 223 b 156 208 162 195 164 178 b 168 136 164 95 162 53 b 157 -26 164 -106 190 -181 b 211 -239 247 -295 305 -322 b 372 -353 450 -339 517 -315 b 530 -310 538 -301 529 -289 z"},"9":{"x_min":0,"x_max":728,"ha":728,"o":"m 272 718 b 179 671 86 579 57 476 b 30 382 81 282 183 266 b 283 249 378 326 439 398 b 484 450 517 510 545 572 b 545 525 547 479 549 432 b 554 335 562 239 544 143 b 531 68 498 -8 443 -62 b 418 -87 384 -113 346 -103 b 299 -90 271 -37 262 7 b 257 30 198 30 201 7 b 214 -93 298 -168 401 -160 b 504 -151 589 -68 632 22 b 680 123 682 238 674 348 b 669 409 661 471 651 532 b 645 563 640 594 634 626 b 627 662 612 696 608 733 b 605 753 559 755 553 737 b 518 642 481 546 424 463 b 396 422 363 385 324 355 b 290 330 233 288 195 325 b 124 394 171 507 220 573 b 249 612 282 646 319 677 b 348 702 432 759 462 708 b 471 693 520 696 510 716 b 470 796 330 747 272 718 z"}," ":{"x_min":0,"x_max":327,"ha":327,"o":""},"I":{"x_min":0,"x_max":578,"ha":578,"o":"m 88 1077 b 173 1106 258 1131 344 1153 b 333 905 336 656 345 408 b 350 268 357 128 370 -11 b 375 -74 380 -139 391 -203 b 366 -196 338 -195 312 -198 b 256 -204 205 -228 160 -261 b 129 -283 71 -317 81 -361 b 84 -372 107 -373 115 -371 b 204 -352 291 -325 379 -302 b 391 -299 402 -296 414 -294 b 424 -326 437 -356 454 -385 b 466 -405 529 -405 520 -375 b 517 -365 515 -355 513 -345 b 517 -342 519 -339 519 -334 b 516 -316 511 -299 503 -285 b 503 -282 503 -279 503 -276 b 509 -275 515 -273 521 -273 b 543 -269 565 -267 588 -265 b 601 -264 613 -264 626 -264 b 634 -264 658 -269 663 -265 b 636 -282 685 -298 702 -287 b 745 -261 690 -235 663 -234 b 609 -230 554 -235 500 -243 b 499 -223 498 -202 496 -182 b 491 -116 488 -51 485 15 b 478 151 474 286 471 422 b 465 676 468 929 469 1183 b 483 1186 498 1189 513 1192 b 563 1203 615 1217 667 1210 b 694 1206 718 1236 681 1240 b 612 1250 539 1235 469 1218 b 469 1232 469 1245 469 1259 b 469 1305 353 1305 350 1259 b 349 1235 347 1211 346 1187 b 250 1163 156 1135 62 1103 b 30 1092 68 1071 88 1077 z m 139 -333 b 155 -308 199 -281 212 -272 b 243 -251 277 -234 314 -228 b 344 -223 374 -228 399 -241 b 401 -248 403 -255 404 -262 b 315 -283 228 -311 139 -333 z"},"H":{"x_min":0,"x_max":1480,"ha":1480,"o":"m 1278 1139 b 1256 926 1258 711 1263 497 b 1232 535 1190 567 1151 592 b 1060 652 952 685 844 698 b 764 708 679 709 595 700 b 597 767 599 835 602 902 b 607 1032 612 1163 623 1292 b 627 1338 510 1339 503 1292 b 473 1089 466 883 465 677 b 359 652 259 608 175 544 b 102 488 12 381 67 284 b 119 195 242 172 336 164 b 380 161 425 160 469 162 b 473 53 481 -57 495 -165 b 501 -214 502 -295 550 -325 b 562 -332 602 -332 597 -309 b 598 -315 598 -303 599 -299 b 600 -289 602 -279 602 -269 b 604 -239 601 -208 600 -178 b 597 -79 596 20 594 119 b 594 137 594 156 593 174 b 648 181 703 191 756 202 b 897 230 1036 270 1175 309 b 1186 312 1192 320 1185 330 b 1178 340 1158 338 1148 335 b 965 284 781 233 593 208 b 591 356 592 503 594 651 b 646 658 699 661 751 659 b 848 656 944 638 1034 601 b 1115 568 1235 506 1248 408 b 1264 289 1146 214 1057 165 b 964 112 866 70 764 38 b 753 35 742 32 731 28 b 697 17 738 -5 759 1 b 772 5 785 9 798 13 b 909 45 1030 63 1140 21 b 1201 -3 1256 -46 1292 -100 b 1296 -147 1301 -193 1321 -235 b 1330 -256 1386 -259 1394 -235 b 1413 -181 1409 -124 1409 -67 b 1408 -9 1406 49 1404 106 b 1401 220 1398 334 1396 448 b 1392 678 1400 908 1399 1139 b 1399 1186 1283 1186 1278 1139 z m 468 196 b 373 190 266 192 184 241 b 148 263 120 295 120 339 b 120 392 159 441 194 477 b 262 547 355 589 447 618 b 453 620 459 622 465 623 b 465 595 465 566 465 537 b 465 424 465 310 468 196 z m 1167 48 b 1102 73 1033 80 964 76 b 1005 94 1046 114 1086 136 b 1152 173 1226 216 1270 280 b 1272 222 1275 164 1278 106 b 1280 63 1283 19 1286 -24 b 1252 6 1211 31 1167 48 z"},"4":{"x_min":0,"x_max":756,"ha":756,"o":"m 119 145 b 162 143 204 164 236 192 b 282 230 319 281 348 335 b 412 345 476 353 540 365 b 542 327 545 289 548 251 b 554 172 560 93 573 15 b 584 -54 593 -145 655 -187 b 665 -193 697 -195 701 -180 b 709 -148 706 -120 702 -88 b 696 -50 692 -11 688 28 b 680 106 675 186 671 265 b 661 425 650 590 663 751 b 667 795 551 797 547 751 b 539 667 533 585 534 501 b 535 466 536 432 538 397 b 481 385 423 378 365 369 b 380 401 392 435 403 467 b 422 524 435 583 441 643 b 448 703 452 768 433 826 b 428 844 375 840 382 818 b 399 763 394 700 388 643 b 382 588 370 534 353 481 b 340 441 324 400 305 360 b 288 357 272 353 256 350 b 184 333 62 300 51 210 b 45 168 82 147 119 145 z m 104 205 b 106 231 127 255 146 270 b 185 300 237 313 285 323 b 257 274 222 230 178 199 b 158 184 102 157 104 205 z"},"D":{"x_min":0,"x_max":1069,"ha":1069,"o":"m 68 1106 b 48 881 45 655 57 429 b 63 317 74 204 88 92 b 102 -19 119 -129 156 -235 b 163 -257 226 -256 226 -230 b 226 -179 223 -128 220 -77 b 229 36 239 149 258 261 b 282 402 318 541 363 678 b 403 800 453 925 534 1026 b 573 1075 622 1121 682 1141 b 717 1153 755 1154 784 1127 b 807 1106 819 1078 830 1050 b 881 925 896 790 901 657 b 906 523 902 386 884 254 b 858 62 766 -316 499 -262 b 432 -249 370 -208 340 -146 b 306 -76 334 -8 395 36 b 509 117 659 121 781 187 b 806 201 768 217 754 213 b 595 177 434 149 274 114 b 259 111 235 102 243 83 b 250 65 282 61 297 65 b 341 76 386 87 430 98 b 403 86 377 72 353 54 b 303 18 263 -36 271 -100 b 278 -160 318 -212 365 -248 b 465 -324 608 -333 721 -282 b 853 -223 923 -86 963 46 b 1007 195 1019 352 1019 507 b 1018 662 1008 821 952 967 b 927 1031 896 1103 839 1146 b 789 1183 724 1188 665 1172 b 533 1134 448 1005 390 889 b 313 735 267 562 229 395 b 215 333 205 272 196 210 b 191 285 187 361 184 436 b 177 659 183 883 197 1106 b 200 1155 73 1157 68 1106 z"},"^":{"x_min":0,"x_max":337,"ha":337,"o":"m 286 584 b 266 657 274 814 161 805 b 110 801 89 757 74 713 b 59 667 42 613 54 565 b 59 546 99 550 108 561 b 132 585 147 615 160 646 b 164 619 169 593 178 567 b 190 528 299 536 286 584 z"},"0":{"x_min":0,"x_max":600,"ha":600,"o":"m 82 75 b 90 -15 120 -113 203 -163 b 286 -213 389 -186 449 -112 b 508 -41 532 58 543 148 b 556 253 550 362 531 466 b 515 556 489 652 433 726 b 386 790 311 823 233 799 b 145 771 96 686 71 602 b 41 503 39 388 94 296 b 81 223 75 149 82 75 z m 117 577 b 135 646 169 727 236 762 b 317 805 380 732 414 665 b 484 525 501 352 481 198 b 470 121 451 40 415 -30 b 400 -61 380 -89 354 -112 b 341 -123 322 -137 304 -137 b 284 -138 266 -122 253 -108 b 198 -48 194 44 195 121 b 195 148 197 175 200 203 b 238 187 281 183 326 194 b 354 201 325 224 306 220 b 268 211 233 220 204 240 b 211 294 221 348 230 401 b 238 444 125 446 115 401 b 114 396 113 392 112 387 b 97 449 101 516 117 577 z"},"F":{"x_min":0,"x_max":1223,"ha":1223,"o":"m 361 1013 b 343 1013 325 1013 307 1012 b 259 1008 211 999 166 984 b 123 970 75 952 51 911 b 44 897 70 891 77 891 b 138 894 193 913 249 935 b 290 950 332 966 374 981 b 450 978 526 957 590 916 b 726 828 770 662 796 505 b 797 471 797 436 799 401 b 799 377 800 353 801 329 b 757 342 709 348 662 346 b 587 344 513 327 444 299 b 412 287 381 272 353 252 b 334 238 296 211 296 184 b 298 120 413 145 447 151 b 523 164 598 185 672 206 b 717 219 761 233 805 247 b 808 182 812 118 817 54 b 821 -5 827 -64 834 -123 b 839 -171 845 -219 874 -260 b 888 -280 953 -283 962 -260 b 962 -260 963 -259 964 -258 b 1007 -200 1022 -131 1030 -60 b 1039 17 1035 96 1001 167 b 983 205 958 236 928 262 b 928 268 928 275 927 282 b 1016 305 1117 333 1208 321 b 1237 317 1262 347 1224 352 b 1126 365 1023 343 927 317 b 926 350 926 382 926 415 b 924 644 931 874 938 1103 b 939 1124 917 1136 891 1138 b 986 1159 1081 1174 1178 1181 b 1241 1185 1305 1188 1368 1184 b 1432 1180 1503 1170 1559 1137 b 1620 1099 1626 1030 1564 988 b 1499 944 1415 973 1352 1006 b 1335 1016 1286 999 1313 984 b 1411 932 1568 899 1644 1006 b 1729 1124 1543 1189 1459 1204 b 1313 1230 1158 1215 1014 1193 b 866 1170 720 1132 577 1087 b 505 1064 432 1039 361 1013 z m 127 928 b 155 950 197 960 228 968 b 240 971 252 973 264 975 b 219 957 173 938 127 928 z m 476 189 b 445 183 414 177 383 173 b 372 172 350 167 352 191 b 353 195 363 205 367 209 b 379 222 394 233 410 243 b 465 277 531 298 594 309 b 664 321 738 317 803 292 b 803 289 803 285 803 282 b 695 249 587 213 476 189 z m 939 178 b 976 114 985 39 979 -33 b 976 -88 968 -145 946 -196 b 941 -163 943 -128 941 -96 b 939 -41 937 13 934 68 b 932 109 931 151 930 193 b 933 188 936 183 939 178 z m 826 1124 b 820 1118 815 1111 815 1103 b 804 975 798 847 796 718 b 756 821 693 910 587 961 b 541 983 492 998 441 1006 b 556 1047 672 1084 789 1114 b 802 1118 814 1121 826 1124 z"},"`":{"x_min":0,"x_max":213,"ha":213,"o":"m 161 635 b 145 662 146 703 145 734 b 143 774 144 815 145 855 b 145 892 52 892 51 855 b 49 804 48 753 61 702 b 69 665 82 631 120 617 b 129 614 172 617 161 635 z"},"k":{"x_min":0,"x_max":519,"ha":519,"o":"m 505 182 b 477 134 345 -81 290 34 b 256 105 202 168 122 181 b 190 207 255 244 310 292 b 349 327 432 426 358 470 b 290 511 211 441 170 392 b 143 361 122 326 106 289 b 104 339 102 389 101 440 b 98 598 104 757 99 915 b 97 960 -9 959 -15 915 b -35 756 -31 593 -25 433 b -21 356 -17 280 -7 205 b 2 131 11 39 56 -23 b 70 -41 122 -47 127 -17 b 133 19 125 56 121 93 b 119 110 117 128 116 145 b 133 131 144 103 155 86 b 170 65 184 42 203 24 b 238 -11 283 -36 334 -33 b 443 -25 508 90 556 174 b 567 192 515 199 505 182 z m 184 335 b 200 360 326 507 334 421 b 338 364 269 309 229 280 b 199 259 167 240 134 224 b 146 263 163 301 184 335 z"},"u":{"x_min":0,"x_max":563,"ha":563,"o":"m 551 168 b 533 120 515 67 479 29 b 424 -31 411 86 408 119 b 395 227 405 337 401 446 b 400 496 279 496 274 446 b 274 445 274 445 274 444 b 266 383 257 323 248 262 b 240 207 232 150 211 97 b 204 78 163 -5 137 32 b 125 50 119 74 113 95 b 86 207 101 324 102 438 b 102 485 -7 482 -15 438 b -33 333 -26 212 2 110 b 16 62 42 10 93 -7 b 167 -32 234 16 261 84 b 270 105 276 127 282 149 b 289 97 306 45 347 12 b 386 -20 452 -36 497 -10 b 555 23 579 102 600 160 b 607 181 558 185 551 168 z"},"]":{"x_min":0,"x_max":419,"ha":419,"o":"m 368 414 b 366 529 364 645 345 758 b 336 804 333 870 284 891 b 235 911 168 907 117 899 b 82 894 105 867 131 870 b 155 873 207 881 228 864 b 244 851 244 811 247 790 b 254 739 255 688 256 636 b 260 521 260 407 256 292 b 253 180 246 67 229 -44 b 221 -99 210 -153 194 -205 b 187 -226 181 -249 170 -268 b 169 -271 160 -281 162 -284 b 150 -282 131 -272 124 -270 b 106 -265 81 -264 64 -274 b 53 -281 43 -297 57 -308 b 97 -340 150 -355 201 -346 b 249 -337 279 -304 297 -260 b 338 -157 350 -42 359 68 b 368 183 371 299 368 414 z"},"U":{"x_min":0,"x_max":1653,"ha":1653,"o":"m 830 -151 b 794 -110 775 -58 761 -6 b 729 110 730 232 736 352 b 749 605 807 867 750 1118 b 729 1209 664 1278 565 1268 b 461 1258 364 1186 292 1115 b 216 1041 146 952 100 856 b 66 784 12 643 90 581 b 157 527 260 552 330 585 b 417 626 485 697 540 774 b 561 803 579 833 597 864 b 608 874 619 883 630 894 b 644 897 658 901 671 904 b 667 836 660 767 653 700 b 638 569 620 437 614 305 b 608 190 609 67 654 -41 b 696 -143 774 -229 892 -230 b 1002 -230 1087 -162 1158 -84 b 1183 -55 1208 -25 1231 6 b 1232 -19 1233 -44 1236 -69 b 1246 -183 1263 -306 1308 -412 b 1328 -459 1356 -502 1395 -536 b 1416 -554 1450 -557 1475 -548 b 1493 -542 1518 -520 1496 -502 b 1412 -430 1386 -312 1366 -208 b 1342 -84 1334 41 1337 166 b 1407 287 1465 415 1517 541 b 1610 768 1697 1014 1705 1261 b 1707 1298 1718 1368 1678 1391 b 1640 1413 1598 1390 1575 1358 b 1540 1311 1514 1254 1489 1201 b 1463 1147 1440 1090 1419 1033 b 1332 798 1268 550 1241 301 b 1233 231 1229 161 1229 90 b 1168 -5 1091 -113 990 -168 b 935 -197 873 -201 830 -151 z m 655 935 b 637 930 618 926 600 921 b 589 922 578 919 573 913 b 495 892 417 868 340 841 b 290 824 240 807 192 787 b 168 777 149 753 179 736 b 209 719 256 729 288 733 b 331 738 373 748 413 762 b 447 774 479 788 509 805 b 474 752 433 703 383 663 b 328 616 155 517 112 628 b 92 680 114 752 132 801 b 152 853 179 901 211 947 b 275 1040 356 1130 454 1189 b 499 1216 585 1265 633 1220 b 664 1191 669 1132 672 1092 b 675 1041 675 989 673 937 b 666 937 660 936 655 935 z m 535 867 b 499 840 460 817 418 800 b 385 787 352 776 318 769 b 300 766 281 763 263 761 b 254 760 246 760 237 759 b 230 759 205 752 223 762 b 258 780 300 790 337 803 b 374 816 411 829 449 841 b 478 850 507 859 535 867 z m 1458 913 b 1490 1028 1521 1147 1574 1255 b 1586 1281 1600 1306 1615 1331 b 1620 1338 1632 1363 1642 1363 b 1652 1363 1651 1335 1651 1326 b 1653 1263 1648 1200 1640 1138 b 1604 889 1510 642 1404 415 b 1385 372 1364 329 1342 287 b 1357 499 1401 709 1458 913 z"},"o":{"x_min":0,"x_max":316,"ha":316,"o":"m 316 168 b 290 160 263 154 237 150 b 241 182 240 215 237 242 b 228 329 179 459 69 437 b -28 418 -42 304 -6 227 b -19 174 -30 115 -10 62 b 9 13 59 -14 110 -10 b 182 -4 217 54 231 119 b 269 123 307 132 342 142 b 375 152 336 174 316 168 z m 163 85 b 155 67 138 30 114 33 b 92 35 93 61 92 79 b 91 97 91 115 93 133 b 118 123 146 118 174 117 b 171 106 167 95 163 85 z m 180 147 b 151 149 123 156 98 172 b 101 191 105 209 108 227 b 112 252 68 263 34 258 b 23 292 23 328 39 361 b 51 386 74 417 106 404 b 126 396 140 374 149 356 b 181 296 192 218 180 147 z"},"N":{"x_min":0,"x_max":981,"ha":981,"o":"m 74 1157 b 42 930 46 697 63 469 b 71 354 85 240 104 126 b 113 69 124 13 137 -44 b 150 -96 161 -159 192 -204 b 204 -222 251 -225 256 -199 b 264 -163 258 -122 252 -83 b 265 110 293 302 334 491 b 377 691 425 903 523 1083 b 535 1104 547 1125 560 1145 b 572 1162 590 1195 612 1202 b 664 1220 667 1086 669 1058 b 674 952 673 844 675 738 b 679 524 682 309 724 98 b 746 -12 775 -123 825 -224 b 842 -256 861 -287 885 -312 b 754 -293 616 -322 511 -403 b 486 -423 482 -450 521 -456 b 567 -463 622 -444 666 -433 b 717 -420 767 -403 818 -388 b 846 -379 875 -371 905 -365 b 914 -363 927 -359 941 -357 b 941 -357 942 -357 942 -357 b 967 -371 995 -380 1027 -382 b 1061 -384 1076 -349 1036 -342 b 1036 -342 1036 -342 1036 -342 b 1027 -333 1015 -328 1002 -326 b 981 -309 966 -283 953 -260 b 932 -219 916 -175 901 -131 b 864 -26 838 82 821 192 b 786 415 781 641 760 866 b 751 970 746 1084 704 1181 b 689 1216 660 1239 621 1238 b 579 1237 547 1209 524 1177 b 401 1012 352 794 304 598 b 268 446 240 293 220 138 b 220 139 220 139 220 139 b 206 251 195 363 188 475 b 174 703 183 929 190 1157 b 192 1202 81 1202 74 1157 z m 831 -350 b 742 -374 655 -409 563 -422 b 559 -423 555 -423 551 -424 b 549 -424 547 -424 546 -424 b 552 -419 568 -412 576 -407 b 593 -397 610 -387 628 -379 b 665 -361 706 -349 747 -343 b 786 -337 826 -336 865 -341 b 854 -344 842 -347 831 -350 z"},"+":{"x_min":0,"x_max":380,"ha":380,"o":"m 306 427 b 284 427 262 426 241 425 b 241 496 244 568 247 639 b 249 683 138 683 132 639 b 123 563 120 489 122 413 b 104 410 86 407 68 403 b 33 396 55 369 81 374 b 96 377 110 380 124 382 b 125 355 127 328 130 301 b 134 264 136 219 155 187 b 167 165 229 158 239 187 b 250 221 244 259 243 294 b 242 328 241 361 241 394 b 262 396 284 396 306 396 b 338 396 339 427 306 427 z"},"G":{"x_min":0,"x_max":1124,"ha":1124,"o":"m 492 765 b 473 719 479 671 538 667 b 590 663 643 699 682 730 b 769 799 830 911 828 1024 b 828 1071 814 1124 773 1153 b 721 1190 653 1181 596 1163 b 468 1122 379 1018 304 912 b 147 689 40 412 51 137 b 56 8 82 -142 203 -214 b 316 -281 454 -240 547 -160 b 723 -11 822 206 899 424 b 899 417 898 411 898 404 b 899 331 901 258 905 184 b 914 40 930 -104 964 -246 b 973 -282 1081 -275 1074 -237 b 1047 -95 1026 47 1013 191 b 1007 262 1001 333 996 404 b 994 440 991 475 988 511 b 985 543 985 577 970 606 b 971 607 972 607 972 607 b 994 607 1015 606 1037 604 b 1064 602 1078 634 1044 637 b 923 649 799 639 680 611 b 629 599 578 584 530 561 b 499 546 433 515 437 472 b 442 432 499 424 530 422 b 586 420 640 435 692 454 b 761 478 827 510 889 549 b 829 372 763 193 657 37 b 598 -51 521 -149 423 -194 b 365 -220 306 -219 259 -174 b 220 -138 198 -88 186 -37 b 135 179 188 419 274 619 b 318 720 372 816 434 908 b 488 988 550 1082 641 1125 b 672 1140 711 1147 738 1120 b 757 1101 767 1074 770 1048 b 777 994 765 938 744 888 b 723 838 691 794 650 758 b 630 740 608 725 584 713 b 570 706 546 692 536 710 b 529 723 540 744 546 756 b 555 778 500 784 492 765 z m 722 501 b 682 485 641 469 599 460 b 575 454 549 450 525 454 b 507 456 484 464 494 487 b 498 498 513 507 522 513 b 592 561 682 581 765 595 b 813 603 861 607 909 608 b 909 607 909 606 908 606 b 850 565 787 529 722 501 z"},"q":{"x_min":0,"x_max":560,"ha":560,"o":"m 556 169 b 503 138 450 108 396 80 b 396 99 396 118 396 137 b 398 236 409 336 401 435 b 398 483 283 483 278 435 b 278 429 277 424 277 419 b 267 430 255 441 240 448 b 196 471 141 464 97 443 b -21 383 -44 240 -19 121 b -7 68 17 15 69 -8 b 118 -29 174 -15 211 23 b 239 51 252 89 261 127 b 261 93 263 59 265 25 b 274 -81 295 -237 412 -279 b 458 -295 511 -290 542 -250 b 573 -209 584 -151 575 -101 b 567 -54 541 -13 503 16 b 476 36 447 45 416 50 b 476 81 534 114 592 149 b 617 164 572 179 556 169 z m 203 114 b 198 96 191 77 181 60 b 175 50 152 18 138 22 b 125 26 113 53 108 65 b 100 84 96 106 92 127 b 80 206 88 294 124 366 b 141 400 172 446 214 417 b 232 403 244 384 253 363 b 241 280 227 195 203 114 z m 476 -16 b 508 -48 524 -91 523 -136 b 523 -162 517 -187 507 -211 b 501 -222 488 -251 473 -251 b 458 -251 441 -213 436 -201 b 428 -183 423 -164 418 -145 b 406 -91 400 -35 397 20 b 426 17 453 7 476 -16 z"},"d":{"x_min":0,"x_max":591,"ha":591,"o":"m 579 169 b 558 128 536 87 507 51 b 495 37 479 17 462 10 b 436 0 429 32 423 51 b 399 137 402 234 400 322 b 395 516 409 708 409 901 b 410 950 291 950 285 901 b 271 781 268 659 267 538 b 267 501 268 464 269 426 b 260 435 251 442 239 448 b 195 471 140 464 96 443 b -22 383 -45 240 -20 121 b -8 68 16 15 68 -8 b 117 -29 173 -15 210 23 b 249 62 259 120 269 172 b 274 195 278 219 282 242 b 285 224 288 206 291 188 b 307 104 339 -22 444 -26 b 538 -29 594 91 629 161 b 638 180 588 186 579 169 z m 202 114 b 197 96 190 77 180 60 b 174 50 151 18 137 22 b 124 26 112 53 107 65 b 99 84 95 106 91 127 b 79 206 87 294 123 366 b 140 400 171 446 213 417 b 231 403 243 384 252 363 b 240 280 226 195 202 114 z"},"1":{"x_min":0,"x_max":514,"ha":514,"o":"m 101 610 b 125 672 236 809 287 698 b 322 621 317 523 317 440 b 316 242 292 43 296 -155 b 296 -161 298 -166 301 -170 b 284 -170 267 -170 250 -170 b 217 -171 217 -202 250 -202 b 315 -202 380 -198 444 -192 b 454 -191 467 -184 463 -173 b 459 -161 439 -161 429 -162 b 425 -162 420 -162 416 -163 b 416 -161 417 -158 417 -155 b 429 -33 431 91 431 214 b 430 335 430 461 403 579 b 385 658 341 764 247 772 b 157 780 79 695 51 618 b 43 596 95 592 101 610 z"},"5":{"x_min":0,"x_max":693,"ha":693,"o":"m 245 718 b 249 719 255 721 261 723 b 228 667 200 610 173 550 b 164 530 145 499 158 476 b 172 452 206 447 231 445 b 294 440 351 444 409 415 b 459 390 500 349 524 299 b 575 193 536 46 466 -43 b 396 -131 256 -154 199 -40 b 140 77 197 273 349 276 b 382 276 382 307 349 307 b 208 307 114 187 99 55 b 93 -8 108 -69 156 -113 b 206 -157 274 -175 339 -173 b 489 -167 588 -57 626 81 b 645 152 652 224 624 294 b 600 354 555 404 501 438 b 429 484 351 494 268 500 b 266 500 265 500 263 500 b 248 501 247 502 261 503 b 263 516 270 529 274 541 b 282 562 289 583 296 605 b 311 649 319 692 327 738 b 327 740 327 742 327 743 b 414 769 533 796 545 733 b 549 712 603 714 599 733 b 583 818 454 803 393 791 b 345 781 299 766 252 753 b 201 739 128 718 101 780 b 93 797 42 792 51 772 b 84 697 178 703 245 718 z"}}}
